<?xml version="1.0" encoding="utf-8"?>
<svg xmlns="http://www.w3.org/2000/svg" width="108" height="108" viewBox="0 0 108 108" fill="none">
<path d="M73.4953 100.499C73.4328 100.499 73.3716 100.481 73.3196 100.447C73.2676 100.413 73.2272 100.364 73.2036 100.306C73.187 100.269 73.1781 100.228 73.1775 100.186C73.1769 100.145 73.1846 100.104 73.2001 100.066C73.2156 100.027 73.2386 99.9925 73.2678 99.963C73.297 99.9335 73.3319 99.91 73.3703 99.8939C78.1493 97.8624 81.7927 95.7999 84.8317 93.4075C86.1128 92.495 87.3247 91.4909 88.4576 90.4032C88.93 89.9769 89.3988 89.5472 89.8781 89.1279C90.3609 88.6466 90.8437 88.1173 91.3125 87.6016C91.58 87.3095 91.8439 87.0138 92.1148 86.7251L93.2332 85.5082C93.452 85.2436 93.6673 84.9583 93.8827 84.6695L96.2201 81.5758L98.2449 78.2759C98.429 77.9803 98.6131 77.6812 98.7833 77.3753L99.4987 75.904C99.6654 75.5603 99.846 75.2166 100.009 74.8728C100.322 74.2335 100.634 73.5975 100.926 72.9479L102.062 69.8542C102.124 69.672 102.197 69.4864 102.267 69.3042C102.388 68.981 102.513 68.6545 102.614 68.3245L103.031 66.7295C103.125 66.348 103.225 65.9699 103.326 65.5883C103.507 64.9008 103.673 64.2133 103.837 63.543L104.333 60.2981C104.336 60.2541 104.348 60.2111 104.368 60.1719C104.388 60.1326 104.417 60.0981 104.451 60.0703C104.486 60.0426 104.526 60.0224 104.569 60.0109C104.612 59.9994 104.657 59.997 104.701 60.0037C104.745 60.0105 104.787 60.0262 104.825 60.05C104.862 60.0738 104.894 60.1051 104.919 60.1419C104.943 60.1787 104.96 60.2202 104.967 60.2636C104.975 60.3071 104.973 60.3516 104.962 60.3943L104.458 63.6565C104.306 64.368 104.111 65.0589 103.941 65.7464C103.84 66.1245 103.739 66.5027 103.646 66.8808L103.229 68.4826C103.132 68.8264 103 69.1701 102.882 69.5139C102.812 69.6926 102.746 69.8576 102.68 70.0535L101.534 73.1472C101.235 73.8347 100.916 74.4672 100.6 75.1134C100.43 75.4572 100.252 75.8009 100.093 76.1447L99.3702 77.6331C99.1861 77.9768 98.9951 78.269 98.8041 78.5749L96.7654 81.8955L94.414 85.0133C94.1918 85.3089 93.9695 85.6045 93.7194 85.8864L92.5872 87.1651C92.3163 87.4538 92.0523 87.746 91.7884 88.0348C91.316 88.5538 90.8263 89.0935 90.3157 89.5988C89.826 90.0285 89.3606 90.4547 88.8918 90.881C87.7418 91.9832 86.5113 93 85.2102 93.9231C82.1434 96.3293 78.455 98.4296 73.6204 100.485C73.58 100.498 73.5375 100.502 73.4953 100.499Z" fill="url(#paint0_linear_630_40707)"/>
<path d="M104.471 78C105.107 76.8149 105.555 75.6298 105.465 74.4785C105.448 73.4323 105.05 72.423 104.337 71.6173C103.832 71.0972 103.188 70.7117 102.472 70.5C102.231 71.0415 102.07 71.6109 101.992 72.193C101.928 72.6946 101.928 73.2015 101.992 73.7031C102.027 74.2889 102.156 74.8665 102.375 75.4164C102.793 76.4491 103.521 77.3464 104.471 78Z" fill="url(#paint1_linear_630_40707)"/>
<path d="M99.9436 73.6759C100.858 73.295 101.591 72.5671 101.988 71.6462C102.209 71.1868 102.364 70.6978 102.449 70.1938C101.77 70.0173 101.066 69.9608 100.368 70.0268C99.0973 70.1583 97.8972 70.6858 96.9319 71.5373C96.348 71.9595 95.8265 72.4644 95.3832 73.0368C95.4938 73.084 97.5492 74.6635 99.9436 73.6759Z" fill="url(#paint2_linear_630_40707)"/>
<path d="M101.763 82C103.226 79.8561 103.299 77.2842 102.207 75.7568C101.808 75.204 101.274 74.7704 100.661 74.5C100.393 75.0101 100.196 75.5565 100.075 76.1233C99.8587 77.1764 99.8768 78.2667 100.128 79.3116C100.41 80.3527 100.978 81.2866 101.763 82Z" fill="url(#paint3_linear_630_40707)"/>
<path d="M97.7074 77.83C99.8683 77.1412 100.369 75.0096 100.43 74.8443C99.792 74.6185 99.1186 74.502 98.4395 74.5C97.2006 74.507 95.9941 74.8846 94.985 75.5813C94.3921 75.9295 93.8475 76.3495 93.3644 76.8313C93.4639 76.8967 95.3084 78.5187 97.7074 77.83Z" fill="url(#paint4_linear_630_40707)"/>
<path d="M98.8847 86C100.555 84.1653 100.838 81.7994 99.894 80.3036C99.5456 79.7564 99.05 79.3066 98.4576 79C98.1418 79.4456 97.8926 79.9303 97.7171 80.4404C97.3996 81.3877 97.3205 82.3921 97.4863 83.3734C97.6715 84.3593 98.1576 85.2724 98.8847 86Z" fill="url(#paint5_linear_630_40707)"/>
<path d="M95.4812 81.4306C97.6277 80.9864 98.3431 79.1365 98.4111 78.9906C97.8125 78.7368 97.1683 78.5778 96.5079 78.5209C95.2995 78.4244 94.0871 78.6628 93.0378 79.2031C92.4326 79.4754 91.8648 79.8086 91.3457 80.1963C91.4351 80.2598 93.0736 81.8463 95.4812 81.4306Z" fill="url(#paint6_linear_630_40707)"/>
<path d="M95.5135 90C97.3336 88.3181 97.8201 85.9871 97.0501 84.4195C96.7611 83.8459 96.3191 83.3561 95.7691 83C94.7584 84.2049 94.2662 85.736 94.3935 87.2787C94.4828 88.2714 94.8721 89.2173 95.5135 90Z" fill="url(#paint7_linear_630_40707)"/>
<path d="M92.4792 84.9808C94.4613 84.6954 95.3088 82.8791 95.3831 82.7314C94.8613 82.4233 94.2903 82.2064 93.6948 82.0901C92.5998 81.8882 91.4688 82.0278 90.4567 82.4896C89.8834 82.7272 89.3359 83.0219 88.8224 83.3693C88.9068 83.4431 90.2507 85.2024 92.4792 84.9808Z" fill="url(#paint8_linear_630_40707)"/>
<path d="M91.669 93.5001C92.5581 92.8116 93.2281 91.8789 93.5973 90.8156C93.9353 89.9264 93.9588 88.948 93.6637 88.0436C93.4384 87.4412 93.0589 86.9089 92.5633 86.5001C91.4709 87.6157 90.8535 89.1127 90.8411 90.6756C90.8362 91.6778 91.124 92.6596 91.669 93.5001Z" fill="url(#paint9_linear_630_40707)"/>
<path d="M89.7804 88.5C91.7514 88.3813 92.7732 86.6602 92.8598 86.5136C92.372 86.1528 91.8259 85.88 91.2456 85.7072C90.1797 85.4009 89.0458 85.435 87.9999 85.8049C87.4121 86.0012 86.8429 86.2501 86.2991 86.5485C86.3718 86.6288 87.5392 88.5139 89.7804 88.5Z" fill="url(#paint10_linear_630_40707)"/>
<path d="M87.8694 96.5001C88.3236 96.1895 88.7428 95.8312 89.1195 95.4316C89.4467 95.0407 89.7189 94.6078 89.9289 94.1446C90.3294 93.3406 90.4388 92.4245 90.2388 91.55C90.0799 90.9633 89.7675 90.4286 89.3331 90.0001C88.1905 90.9469 87.4713 92.3027 87.3321 93.7724C87.238 94.7142 87.4248 95.6626 87.8694 96.5001Z" fill="url(#paint11_linear_630_40707)"/>
<path d="M86.3173 91.499C88.1371 91.5438 89.2376 90.2105 89.3271 90.0939C88.9096 89.7587 88.4307 89.4917 87.9117 89.3047C85.6643 88.5065 83.6688 89.5199 83.271 89.6036C83.3307 89.6903 84.2522 91.3376 86.3173 91.499Z" fill="url(#paint12_linear_630_40707)"/>
<path d="M84.1409 99.0001C85.0339 98.5298 85.7702 97.8135 86.261 96.9378C86.7049 96.2176 86.8846 95.3679 86.7699 94.5318C86.6691 93.9675 86.4203 93.4394 86.0486 93.0001C85.4678 93.3881 84.9732 93.8897 84.5953 94.4738C84.2174 95.058 83.9641 95.7126 83.851 96.3972C83.6888 97.2742 83.7896 98.1791 84.1409 99.0001Z" fill="url(#paint13_linear_630_40707)"/>
<path d="M82.6068 93.9788C84.4486 94.1739 85.6938 92.9609 85.7944 92.8542C85.4066 92.4912 84.9501 92.1901 84.4451 91.9643C82.2322 90.9738 80.151 91.8668 79.7383 91.9277C79.7764 91.9856 80.5846 93.7198 82.6068 93.9788Z" fill="url(#paint14_linear_630_40707)"/>
<path d="M80.4694 101C82.2647 100.062 83.383 98.4586 83.262 96.9923C83.2145 96.4547 83.0237 95.9395 82.7094 95.5C82.1349 95.8101 81.6307 96.2349 81.2285 96.7478C80.8262 97.2608 80.5344 97.8509 80.3713 98.4814C80.1715 99.314 80.2054 100.185 80.4694 101Z" fill="url(#paint15_linear_630_40707)"/>
<path d="M79.4083 96.4419C80.0066 96.5463 80.6205 96.5099 81.2027 96.3354C81.785 96.1609 82.3199 95.853 82.7663 95.4355C82.406 94.9763 81.9707 94.5833 81.4792 94.2738C79.3426 92.9419 77.0785 93.7041 76.7102 93.8409C76.754 93.926 77.392 95.9942 79.4083 96.4419Z" fill="url(#paint16_linear_630_40707)"/>
<path d="M54.5774 103.999C48.8373 104.029 43.1386 103.025 37.7519 101.035C34.0811 99.8111 30.352 97.8855 26.0231 94.9832L23.3737 92.9991C22.7928 92.575 22.2441 92.1084 21.732 91.603C21.4509 91.3382 21.1698 91.0734 20.8751 90.8224C19.5805 89.683 18.3676 88.4535 17.2454 87.143C16.9232 86.7991 16.5976 86.4209 16.272 86.0667C16.2356 86.0385 16.2058 86.0025 16.1847 85.9615C16.1635 85.9205 16.1516 85.8753 16.1498 85.8291C16.1479 85.783 16.1562 85.737 16.1739 85.6944C16.1917 85.6518 16.2185 85.6136 16.2526 85.5825C16.2866 85.5514 16.327 85.5282 16.371 85.5144C16.4149 85.5007 16.4613 85.4967 16.507 85.5029C16.5526 85.5091 16.5963 85.5252 16.6351 85.5501C16.6738 85.575 16.7067 85.6082 16.7313 85.6472C17.0603 86.0094 17.3871 86.3716 17.7115 86.7338C18.815 88.022 20.0072 89.2308 21.2795 90.3513C21.5846 90.6126 21.8725 90.8843 22.1604 91.156C22.6533 91.6415 23.1815 92.0898 23.7404 92.497L26.3865 94.4812C30.6502 97.3387 34.3348 99.23 37.961 100.434C45.8442 103.387 54.7556 104.12 63.7253 102.562C63.7658 102.555 63.8073 102.556 63.8475 102.565C63.8877 102.573 63.9257 102.59 63.9595 102.614C63.9932 102.637 64.022 102.668 64.0441 102.702C64.0663 102.737 64.0814 102.776 64.0886 102.817C64.0958 102.857 64.095 102.899 64.0861 102.939C64.0773 102.979 64.0606 103.018 64.037 103.051C64.0135 103.085 63.9835 103.114 63.9488 103.136C63.9142 103.159 63.8755 103.174 63.835 103.181C60.7781 103.719 57.6809 103.993 54.5774 103.999Z" fill="url(#paint17_linear_630_40707)"/>
<path d="M46.9346 107.847C47.6124 107.96 48.3022 108.01 48.9924 107.998C49.6309 107.946 50.2588 107.822 50.8601 107.628C51.9253 107.323 52.8357 106.709 53.4369 105.89C53.8136 105.323 54.008 104.679 53.9997 104.025C52.1631 103.881 50.3347 104.367 48.9083 105.378C47.9836 106.015 47.297 106.873 46.9346 107.847Z" fill="url(#paint18_linear_630_40707)"/>
<path d="M49.9789 102.628C51.5299 104.32 53.8119 103.986 54 103.95C53.9554 103.237 53.7922 102.537 53.5173 101.881C52.3071 99.0492 49.6134 98.2687 49.1733 98.0001C49.1591 98.1199 48.3322 100.599 49.9789 102.628Z" fill="url(#paint19_linear_630_40707)"/>
<path d="M42.3925 106.713C42.9749 106.887 43.5804 106.984 44.1914 107C44.7523 106.995 45.3104 106.926 45.8541 106.797C46.82 106.594 47.6807 106.082 48.2881 105.348C48.67 104.835 48.8996 104.235 48.9532 103.611C48.1594 103.461 47.3414 103.463 46.5486 103.618C45.7558 103.773 45.0048 104.078 44.3411 104.514C43.4773 105.053 42.8 105.817 42.3925 106.713Z" fill="url(#paint20_linear_630_40707)"/>
<path d="M45.1709 101.868C46.5233 103.6 48.7619 103.509 48.9505 103.495C48.9708 102.822 48.8745 102.151 48.6658 101.511C47.7547 98.706 45.1887 97.7981 44.7937 97.5001C44.7687 97.5947 43.7366 99.8875 45.1709 101.868Z" fill="url(#paint21_linear_630_40707)"/>
<path d="M37.3458 105.504C38.4663 105.972 39.6979 106.113 40.8962 105.91C41.9051 105.789 42.8392 105.32 43.536 104.585C43.9839 104.069 44.2859 103.443 44.4112 102.773C43.6149 102.527 42.7762 102.446 41.9471 102.535C41.118 102.624 40.3159 102.88 39.5904 103.288C38.6432 103.797 37.8639 104.566 37.3458 105.504Z" fill="url(#paint22_linear_630_40707)"/>
<path d="M40.9132 100.622C42.0444 102.377 44.1838 102.5 44.3665 102.5C44.4477 101.87 44.418 101.232 44.2786 100.611C43.6709 97.8841 41.3031 96.7864 40.9413 96.5C40.7176 96.9302 40.559 97.3895 40.4705 97.8637C40.2505 98.8041 40.4089 99.7906 40.9132 100.622Z" fill="url(#paint23_linear_630_40707)"/>
<path d="M32.8037 103.327C33.3352 103.608 33.9161 103.798 34.5189 103.887C35.0699 103.985 35.6317 104.02 36.1917 103.989C37.1741 103.968 38.1173 103.623 38.8563 103.016C39.337 102.584 39.6866 102.039 39.8691 101.439C39.1263 101.143 38.3267 100.994 37.52 101C36.7132 101.007 35.9164 101.168 35.1789 101.475C34.2192 101.873 33.3968 102.515 32.8037 103.327Z" fill="url(#paint24_linear_630_40707)"/>
<path d="M36.6813 99.3972C37.5771 101.171 39.5589 101.48 39.7353 101.5C39.8722 100.909 39.9044 100.298 39.8304 99.6957C39.5114 97.0696 37.4109 95.7583 37.0783 95.5C36.836 95.8892 36.6476 96.3089 36.5184 96.7476C36.2284 97.619 36.2867 98.5669 36.6813 99.3972Z" fill="url(#paint25_linear_630_40707)"/>
<path d="M28.2617 101.011C30.4006 102.265 32.7819 102.312 34.1828 101.235C34.6943 100.832 35.0892 100.301 35.3271 99.6965C34.6337 99.3208 33.8702 99.0912 33.084 99.0221C32.2978 98.9531 31.5057 99.046 30.7571 99.295C29.782 99.6259 28.9181 100.22 28.2617 101.011Z" fill="url(#paint26_linear_630_40707)"/>
<path d="M32.502 97.4923C33.1607 99.4375 34.929 99.9602 35.0792 100C35.2568 99.3956 35.3401 98.7607 35.3255 98.1237C35.2615 95.3655 33.4965 93.7469 33.1767 93.5001C33.1351 93.569 31.8017 95.3873 32.502 97.4923Z" fill="url(#paint27_linear_630_40707)"/>
<path d="M24.2242 98.3812C26.0679 99.5847 28.2289 99.8411 29.6066 99.0346C30.1079 98.7334 30.5144 98.315 30.785 97.8217C30.1838 97.4497 29.5062 97.1964 28.7945 97.0775C28.0829 96.9587 27.3524 96.9768 26.6486 97.1309C25.7331 97.3366 24.8951 97.7688 24.2242 98.3812Z" fill="url(#paint28_linear_630_40707)"/>
<path d="M28.3784 95.0106C28.8991 96.8113 30.6973 97.453 30.8535 97.5C31.0902 96.9832 31.2335 96.431 31.2771 95.8673C31.4541 93.3947 29.7253 91.762 29.4337 91.5C29.3712 91.5705 27.8334 93.0454 28.3784 95.0106Z" fill="url(#paint29_linear_630_40707)"/>
<path d="M20.6915 95.6216C22.2945 96.9079 24.2181 97.3672 25.5454 96.6861C26.0349 96.4219 26.4485 96.0393 26.7476 95.5741C26.4783 95.4379 25.0581 94.234 23.0351 94.554C22.1677 94.6845 21.3553 95.0546 20.6915 95.6216Z" fill="url(#paint30_linear_630_40707)"/>
<path d="M24.7818 92.8644C24.9062 93.4432 25.1831 93.9856 25.5885 94.4448C25.994 94.904 26.5157 95.2662 27.1087 95.5001C27.4009 95.0179 27.5966 94.4921 27.6867 93.9473C28.1118 91.5398 26.4822 89.7827 26.1951 89.5001C26.1317 89.575 24.4089 90.8928 24.7818 92.8644Z" fill="url(#paint31_linear_630_40707)"/>
<path d="M17.1588 92.538C18.7737 94.1684 20.7318 94.9721 22.3142 94.2103C22.8697 93.9534 23.3535 93.5508 23.7196 93.0408C23.3225 92.7073 22.8981 92.4116 22.4515 92.1571C21.638 91.6744 20.7097 91.4495 19.7781 91.5095C18.8294 91.5801 17.9201 91.9372 17.1588 92.538Z" fill="url(#paint32_linear_630_40707)"/>
<path d="M21.7118 90.2203C21.782 91.0026 22.0924 91.7393 22.5957 92.3182C22.8628 92.5985 23.1729 92.829 23.5128 93C23.7986 92.5456 24.0059 92.0413 24.1253 91.5105C24.2667 90.7308 24.2565 89.929 24.0955 89.1536C23.9344 88.3782 23.6258 87.6455 23.1883 87C23.1221 87.0734 21.5562 88.2378 21.7118 90.2203Z" fill="url(#paint33_linear_630_40707)"/>
<path d="M10.633 77.9931C10.5711 77.9932 10.5104 77.9765 10.4579 77.9449C10.4055 77.9132 10.3634 77.868 10.3364 77.8144L8.84652 74.8406C8.76435 74.6653 8.67502 74.4968 8.58927 74.325C8.42134 73.9984 8.25699 73.6683 8.1105 73.3349L7.51739 71.7775C7.37805 71.3993 7.23513 71.0246 7.08864 70.6499C6.83496 69.9898 6.58128 69.3298 6.35261 68.6628L5.49511 65.4484C5.44509 65.2559 5.39507 65.0703 5.34147 64.8812C5.24501 64.5374 5.15211 64.1936 5.08065 63.8292L4.30175 58.92L4.03735 53.9454C4.03735 53.5638 4.06236 53.1994 4.0838 52.8384L4.30175 48.9708C4.37678 48.242 4.49469 47.5235 4.60902 46.8291C4.67334 46.4474 4.73408 46.0624 4.79124 45.6774C5.00473 44.1177 5.34399 42.5763 5.80596 41.0672C5.97388 40.4518 6.14538 39.8365 6.29902 39.2142C7.52811 35.6732 9.28599 31.1318 12.0157 27.1474C12.0387 27.112 12.0687 27.0813 12.1042 27.0573C12.1396 27.0332 12.1797 27.0162 12.222 27.0073C12.2644 26.9983 12.3082 26.9976 12.3508 27.0052C12.3935 27.0128 12.4341 27.0286 12.4704 27.0515C12.5066 27.0744 12.5377 27.1041 12.5618 27.1388C12.5859 27.1735 12.6026 27.2124 12.6109 27.2534C12.6191 27.2944 12.6187 27.3365 12.6098 27.3773C12.6009 27.4182 12.5835 27.4569 12.5588 27.4912C9.86124 31.4172 8.12479 35.9104 6.91357 39.3861C6.76708 39.9843 6.59557 40.6065 6.42407 41.2288C5.97327 42.7104 5.64003 44.2228 5.42722 45.753C5.37006 46.1518 5.30575 46.5403 5.24143 46.9287C5.13067 47.6163 5.01276 48.3211 4.94131 49.0155L4.74122 52.8728C4.71978 53.2166 4.69835 53.581 4.69477 53.9316L4.9556 58.8581L5.73092 63.7226C5.79524 64.0492 5.88813 64.3861 5.98103 64.723C6.03462 64.9121 6.08822 65.1046 6.13467 65.2972L6.9886 68.4875C7.20655 69.1269 7.45665 69.7801 7.70318 70.4333C7.8461 70.808 7.99259 71.1862 8.13194 71.5644L8.72147 73.1114C8.85724 73.4208 9.01802 73.7371 9.17881 74.0534L9.4432 74.5759L10.9295 77.5497C10.9528 77.5975 10.9633 77.6502 10.96 77.7029C10.9566 77.7557 10.9396 77.8068 10.9105 77.8516C10.8813 77.8964 10.841 77.9334 10.7932 77.9593C10.7453 77.9853 10.6915 77.9993 10.6366 78L10.633 77.9931Z" fill="url(#paint34_linear_630_40707)"/>
<path d="M0.504639 63.5C0.61987 64.6934 1.10345 65.8293 1.89604 66.7681C2.51595 67.5814 3.41922 68.1653 4.44926 68.4185C5.15137 68.5576 5.88027 68.5181 6.56071 68.3041C6.3863 67.4991 6.03871 66.736 5.53926 66.0616C5.03981 65.3873 4.39901 64.8158 3.65616 64.3824C2.72097 63.8033 1.62468 63.4964 0.504639 63.5Z" fill="url(#paint35_linear_630_40707)"/>
<path d="M6.58189 64.1872C5.46884 66.2117 6.45428 68.3266 6.54644 68.5001C7.19473 68.237 7.79415 67.8629 8.31881 67.3938C10.63 65.3405 10.4669 62.5062 10.5981 62.0001C10.5059 62.0182 7.8899 61.9856 6.58189 64.1872Z" fill="url(#paint36_linear_630_40707)"/>
<path d="M0 58.5C0.013025 59.7152 0.38553 60.902 1.07446 61.9234C1.60528 62.8018 2.44185 63.4742 3.43829 63.8233C4.12288 64.0283 4.85219 64.0554 5.5514 63.9021C5.46297 63.0736 5.19772 62.2713 4.77204 61.5447C4.34637 60.8181 3.76932 60.1826 3.07655 59.6776C2.18804 59.0151 1.12133 58.6068 0 58.5Z" fill="url(#paint37_linear_630_40707)"/>
<path d="M5.81889 59.6257C4.48121 61.3633 5.27335 63.3357 5.34061 63.5001C6.03043 63.3207 6.68116 63.0371 7.26493 62.6615C9.82445 61.0279 9.98138 58.445 10.0935 58.0089C9.5532 57.9807 9.01118 58.0203 8.48303 58.1263C7.41335 58.3002 6.45931 58.8372 5.81889 59.6257Z" fill="url(#paint38_linear_630_40707)"/>
<path d="M0.00348406 53.5001C-0.069988 55.9265 1.02541 58.0241 2.6418 58.7146C3.24028 58.9667 3.89704 59.0542 4.54205 58.9677C4.53781 58.1938 4.37299 57.4289 4.05771 56.7199C3.74243 56.0109 3.28333 55.3729 2.70859 54.8448C1.94866 54.1616 1.01307 53.6965 0.00348406 53.5001Z" fill="url(#paint39_linear_630_40707)"/>
<path d="M5.51898 55.2877C4.09221 56.8533 4.63439 58.8355 4.68432 59.0001C5.33934 58.8844 5.96886 58.6652 6.54626 58.3517C7.35196 57.8848 8.041 57.2594 8.56615 56.5183C9.09131 55.7772 9.44017 54.938 9.58884 54.058C9.47113 54.0547 7.06703 53.6011 5.51898 55.2877Z" fill="url(#paint40_linear_630_40707)"/>
<path d="M0.542001 48.5001C0.317128 50.9707 1.11781 53.2015 2.66126 54.0598C3.23998 54.3706 3.88838 54.5215 4.54202 54.4976C4.49773 54.1501 4.75667 51.9228 3.11782 50.1228C2.42419 49.3478 1.53206 48.7857 0.542001 48.5001Z" fill="url(#paint41_linear_630_40707)"/>
<path d="M5.72318 50.493C4.28503 51.8811 4.51962 53.8459 4.62161 54.0001C5.22483 53.9452 5.81381 53.7875 6.36235 53.534C7.151 53.1511 7.84714 52.6058 8.40375 51.9348C8.96037 51.2639 9.3645 50.4829 9.58884 49.6447C9.48004 49.6313 7.31432 48.9976 5.72318 50.493Z" fill="url(#paint42_linear_630_40707)"/>
<path d="M1.16049 43.5C0.722347 45.7999 1.2358 47.9544 2.71797 48.9115C3.2515 49.2556 3.86565 49.4583 4.50136 49.5C4.46713 49.1618 4.91212 47.0987 3.50526 45.2622C2.90662 44.4689 2.09402 43.8582 1.16049 43.5Z" fill="url(#paint43_linear_630_40707)"/>
<path d="M6.04908 46.2291C4.40094 47.4328 4.4913 49.33 4.58527 49.5001C5.20197 49.5008 5.81389 49.4003 6.39244 49.2033C7.23642 48.8994 8.0019 48.4355 8.63942 47.8417C9.27693 47.2478 9.7723 46.5371 10.0935 45.7556C9.99593 45.7456 7.83817 44.9454 6.04908 46.2291Z" fill="url(#paint44_linear_630_40707)"/>
<path d="M2.8401 38.5C2.23214 40.8277 2.47004 43.0899 3.80822 44.2229C4.27468 44.6278 4.82736 44.8952 5.41405 45C5.49586 44.4646 5.54114 43.9233 5.54952 43.3804C5.57491 42.3751 5.33632 41.3829 4.86225 40.5226C4.3762 39.6515 3.67492 38.95 2.8401 38.5Z" fill="url(#paint45_linear_630_40707)"/>
<path d="M7.23111 41.5917C6.53124 42.0803 6.0022 42.7989 5.72526 43.637C5.58982 44.0667 5.53264 44.5198 5.55677 44.9721C6.14525 45.0374 6.74004 44.9882 7.31184 44.827C8.12711 44.5699 8.88406 44.1387 9.53604 43.5599C10.188 42.9811 10.7212 42.2669 11.1028 41.4615C10.9834 41.4206 9.04234 40.3645 7.23111 41.5917Z" fill="url(#paint46_linear_630_40707)"/>
<path d="M4.11036 34.5C3.22414 36.5123 3.3218 38.5246 4.65294 39.6716C5.1071 40.0726 5.66532 40.358 6.27346 40.5C6.42781 40.0345 6.5118 39.5514 6.52305 39.0646C6.64116 38.176 6.4804 37.2747 6.06005 36.4687C5.62615 35.6534 4.94961 34.9702 4.11036 34.5Z" fill="url(#paint47_linear_630_40707)"/>
<path d="M8.41474 37.3929C7.69717 37.7735 7.13097 38.4033 6.81471 39.1725C6.67171 39.5699 6.58615 39.9871 6.56079 40.4106C7.11269 40.5221 7.67946 40.5295 8.23386 40.4322C8.77716 40.3349 9.29912 40.1368 9.77476 39.8475C10.2086 39.6124 10.6129 39.3227 10.9783 38.9848C11.4183 38.5856 11.8002 38.1224 12.1122 37.6095C12.0252 37.5662 10.2582 36.4147 8.41474 37.3929Z" fill="url(#paint48_linear_630_40707)"/>
<path d="M6.28077 30.5C5.83071 31.351 5.58063 32.3028 5.55139 33.276C5.56988 34.1155 5.85505 34.9243 6.36145 35.5735C6.71907 35.9973 7.17493 36.3165 7.68466 36.5C8.16524 35.2395 8.203 33.8403 7.79116 32.5532C7.48598 31.7303 6.96155 31.0174 6.28077 30.5Z" fill="url(#paint49_linear_630_40707)"/>
<path d="M9.54127 33.7404C9.15197 33.8989 8.7974 34.1275 8.49646 34.4142C8.26502 34.6644 8.07047 34.9444 7.91834 35.2462C7.7476 35.5904 7.63025 35.957 7.57007 36.3343C8.09649 36.4765 8.64469 36.5278 9.18952 36.4859C10.1853 36.3752 11.1259 35.9853 11.8956 35.3641C12.3576 35.0398 12.7703 34.6542 13.1215 34.2188C13.0274 34.175 11.415 33.0094 9.54127 33.7404Z" fill="url(#paint50_linear_630_40707)"/>
<path d="M18.4835 19.9999C18.4096 20 18.338 19.9741 18.2808 19.9264C18.249 19.8994 18.2228 19.8662 18.2037 19.8288C18.1845 19.7914 18.1729 19.7505 18.1693 19.7085C18.1658 19.6665 18.1705 19.6241 18.1832 19.584C18.1958 19.5438 18.2162 19.5066 18.243 19.4745C18.8604 18.7544 19.5275 18.0801 20.239 17.4569L20.6307 17.1066C20.9296 16.8439 21.2147 16.5706 21.4999 16.3009C22.0126 15.791 22.5516 15.3092 23.1146 14.8577C23.481 14.5869 23.8429 14.309 24.2002 14.0241C25.5854 12.9077 27.0456 11.8917 28.5701 10.9836L29.9856 10.1324C30.457 9.81644 30.9534 9.5411 31.4697 9.30922L34.4311 7.85203C35.0729 7.52407 35.7378 7.2454 36.4203 7.01835C36.7638 6.88874 37.1452 6.75914 37.5025 6.61552C37.8597 6.4719 38.1896 6.36682 38.5091 6.23721C39.2127 5.94671 39.9375 5.71248 40.6769 5.53664C49.537 3.00757 58.6068 2.82893 66.8863 5.02872C66.967 5.05009 67.036 5.10324 67.0782 5.17649C67.1204 5.24974 67.1323 5.33707 67.1114 5.41929C67.0904 5.50151 67.0383 5.57187 66.9664 5.6149C66.8946 5.65793 66.8089 5.6701 66.7283 5.64873C58.5552 3.47696 49.5989 3.6521 40.828 6.16015C40.113 6.33168 39.4124 6.56006 38.7324 6.8432C38.3888 6.97281 38.0453 7.10242 37.7189 7.22151C37.3925 7.34061 36.9974 7.49824 36.6264 7.62784C35.9643 7.84204 35.3189 8.10667 34.6957 8.41949L31.7033 9.89069C31.2125 10.1126 30.7403 10.375 30.2913 10.6753L28.8759 11.551C27.3763 12.4469 25.9402 13.4488 24.5781 14.5495C24.2345 14.8262 23.8635 15.1029 23.5028 15.3727C22.9533 15.8111 22.4269 16.2788 21.9259 16.7738C21.6373 17.0505 21.3453 17.3238 21.0464 17.59L20.6616 17.9403C19.973 18.5449 19.3256 19.1968 18.724 19.8913C18.6942 19.9264 18.6572 19.9542 18.6156 19.973C18.5741 19.9918 18.529 20.001 18.4835 19.9999Z" fill="url(#paint51_linear_630_40707)"/>
<path d="M28.9842 5.50008C26.5592 6.78306 25.0419 8.95672 25.2532 10.9678C25.3398 11.7029 25.6107 12.4028 26.0396 13.0001C26.3237 12.7103 28.4645 11.5863 29.0916 8.90724C29.3631 7.783 29.3259 6.6042 28.9842 5.50008Z" fill="url(#paint52_linear_630_40707)"/>
<path d="M30.1529 11.5875C27.9715 11.1266 26.3252 12.6271 26.2429 12.8211C26.6654 13.3397 27.1765 13.7775 27.752 14.1136C28.5898 14.5907 29.5181 14.8831 30.4758 14.9715C31.4335 15.0599 32.3989 14.9423 33.3083 14.6265C33.25 14.519 32.5126 12.1108 30.1529 11.5875Z" fill="url(#paint53_linear_630_40707)"/>
<path d="M33.6645 3.50002C31.0563 4.56169 29.2343 6.46918 29.2716 8.45452C29.2906 9.17579 29.5049 9.88025 29.8938 10.5C30.2142 10.2452 32.5579 9.33217 33.4596 6.82307C33.8464 5.75401 33.9173 4.60466 33.6645 3.50002Z" fill="url(#paint54_linear_630_40707)"/>
<path d="M34.105 9.67828C32.0832 9.04042 30.3781 10.306 30.2804 10.4883C30.637 11.0122 31.083 11.4692 31.5979 11.8382C32.3541 12.3613 33.2118 12.7191 34.1152 12.8883C35.0185 13.0575 35.9473 13.0344 36.8411 12.8203C36.8007 12.7225 36.3054 10.3904 34.105 9.67828Z" fill="url(#paint55_linear_630_40707)"/>
<path d="M38.3053 2.00009C35.8231 2.76163 33.9614 4.30778 33.8231 6.11108C33.7741 6.76088 33.906 7.41147 34.2061 8.00009C34.5252 7.80229 36.7628 7.15614 37.823 4.98361C38.2815 4.05081 38.4486 3.01696 38.3053 2.00009Z" fill="url(#paint56_linear_630_40707)"/>
<path d="M38.3507 7.82878C37.4801 7.46084 36.515 7.39981 35.6069 7.65528C35.1371 7.77183 34.6974 7.99092 34.3177 8.2976C34.634 8.89144 35.0511 9.42272 35.5492 9.8665C36.2826 10.493 37.1352 10.9561 38.0527 11.2262C38.9703 11.4964 39.9326 11.5676 40.8785 11.4354C40.8425 11.3173 40.5616 8.80703 38.3507 7.82878Z" fill="url(#paint57_linear_630_40707)"/>
<path d="M43.398 1.00006C41.0404 1.52705 39.2048 2.83117 38.9118 4.62226C38.8045 5.25238 38.8637 5.8993 39.0836 6.50006C39.5892 6.32603 40.0811 6.11533 40.5554 5.86968C41.4433 5.4188 42.1812 4.72399 42.6806 3.86847C43.1876 2.99827 43.4362 2.00401 43.398 1.00006Z" fill="url(#paint58_linear_630_40707)"/>
<path d="M42.794 6.45856C41.9846 6.0473 41.0578 5.90736 40.158 6.0605C39.6958 6.13517 39.2541 6.3003 38.8597 6.54585C39.1115 7.11567 39.4645 7.63807 39.9027 8.0892C40.559 8.72376 41.3427 9.22047 42.2051 9.54844C43.0675 9.87642 43.9902 10.0287 44.9158 9.99568C44.8906 9.86998 44.8367 7.55147 42.794 6.45856Z" fill="url(#paint59_linear_630_40707)"/>
<path d="M48.4486 3.05176e-05C47.3135 0.104717 46.2181 0.453333 45.2442 1.01975C44.8322 1.26965 44.4635 1.57928 44.1512 1.93749C43.8688 2.29917 43.6577 2.7069 43.5281 3.14075C43.3597 3.75008 43.3597 4.3907 43.5281 5.00003C44.0653 4.88518 44.5889 4.71892 45.0911 4.50377C46.0389 4.14732 46.8586 3.53709 47.4517 2.74646C48.0498 1.93962 48.3955 0.987177 48.4486 3.05176e-05Z" fill="url(#paint60_linear_630_40707)"/>
<path d="M47.211 5.62395C46.6624 5.26906 46.018 5.05681 45.3469 5.00995C44.6759 4.96309 44.0035 5.08338 43.4019 5.35793C43.5903 5.89737 43.8822 6.40216 44.264 6.84894C44.8456 7.47714 45.561 7.9916 46.3669 8.3613C47.1728 8.731 48.0526 8.94829 48.9533 9.00006C48.9352 8.89825 49.0975 6.79639 47.211 5.62395Z" fill="url(#paint61_linear_630_40707)"/>
<path d="M53.4953 3.05176e-05C50.9869 0.0384026 48.8508 0.959333 48.1926 2.66166C47.9573 3.24842 47.8874 3.8812 47.9896 4.50003C48.5514 4.44509 49.1029 4.32073 49.6292 4.13026C50.6275 3.86883 51.5225 3.34409 52.2054 2.6198C52.8968 1.8791 53.3446 0.969825 53.4953 3.05176e-05V3.05176e-05Z" fill="url(#paint62_linear_630_40707)"/>
<path d="M51.7386 5.25435C51.139 4.7754 50.3865 4.50911 49.6071 4.50005C49.212 4.5165 48.8215 4.58928 48.4486 4.71601C48.5626 5.22738 48.7709 5.71499 49.0637 6.15576C49.3548 6.58848 49.7214 6.96966 50.1473 7.28252C50.9588 7.9181 51.9293 8.3379 52.9622 8.50005C52.9622 8.40615 53.2876 6.49066 51.7386 5.25435Z" fill="url(#paint63_linear_630_40707)"/>
<path d="M58.0373 0.0368443C56.9597 -0.071642 55.8708 0.0604072 54.8539 0.422892C53.9973 0.789302 53.2936 1.42585 52.8569 2.22917C52.5819 2.7797 52.4562 3.38922 52.4919 4.00003C54.0034 3.97267 55.457 3.43115 56.599 2.47001C57.3098 1.81016 57.8093 0.9653 58.0373 0.0368443Z" fill="url(#paint64_linear_630_40707)"/>
<path d="M55.9457 4.95177C54.5351 3.54754 52.6447 4.10923 52.486 4.11951C52.5575 4.67079 52.7322 5.2055 53.0019 5.69841C53.5827 6.78413 54.4738 7.32527 55.2566 7.81504C55.7794 8.1166 56.3441 8.34717 56.9342 8.50003C56.9414 8.40071 57.4681 6.41081 55.9457 4.95177Z" fill="url(#paint65_linear_630_40707)"/>
<path d="M62.0747 0.636415C60.0861 0.154389 58.225 1.004 57.4564 2.33911C57.1824 2.83746 57.0348 3.40257 57.028 3.97939C58.341 4.10097 59.6479 3.68254 60.6781 2.81074C61.3352 2.24744 61.8211 1.49109 62.0747 0.636415Z" fill="url(#paint66_linear_630_40707)"/>
<path d="M59.8392 5.03901C58.7575 3.74788 57.1643 4.02504 57.028 4.02504C57.0478 4.55679 57.1527 5.08067 57.3379 5.57303C57.6907 6.47202 58.2935 7.22749 59.0613 7.73279C59.4869 8.03145 59.936 8.28821 60.4034 8.50003C60.422 8.40877 60.9923 6.56673 59.8392 5.03901Z" fill="url(#paint67_linear_630_40707)"/>
<path d="M104.66 50.5001C104.58 50.4993 104.504 50.4682 104.446 50.4129C104.388 50.3577 104.354 50.2826 104.349 50.2028L104.257 48.5664L103.52 43.7358L102.304 39.0008L100.623 34.4093L98.9569 30.9418C98.8066 30.6275 98.6564 30.3132 98.4958 30.0058L97.6523 28.6392C97.4542 28.3181 97.2596 27.9936 97.0615 27.6656C96.6961 27.0575 96.3306 26.4494 95.9413 25.8584C90.7571 18.4382 84.002 12.6408 76.3862 9.09467C76.3489 9.07778 76.3153 9.05359 76.2875 9.02353C76.2596 8.99347 76.2381 8.95814 76.2241 8.91963C76.2101 8.88112 76.2039 8.8402 76.2059 8.79927C76.208 8.75834 76.2182 8.71823 76.2359 8.6813C76.2708 8.60654 76.3338 8.54852 76.4111 8.51976C76.4884 8.491 76.5739 8.4938 76.6492 8.52757C84.3537 12.1215 91.2045 17.9907 96.457 25.5031C96.8566 26.1112 97.2288 26.7261 97.5977 27.3411C97.7923 27.6827 97.987 27.9901 98.1851 28.3079L99.0286 29.712C99.2028 30.0536 99.3701 30.3645 99.5067 30.6856L101.187 34.1668L102.895 38.8164L104.127 43.5992L104.875 48.4913L104.971 50.1584C104.974 50.2004 104.969 50.2427 104.956 50.2827C104.943 50.3227 104.922 50.3597 104.894 50.3915C104.866 50.4233 104.833 50.4492 104.795 50.4679C104.757 50.4865 104.716 50.4975 104.674 50.5001H104.66Z" fill="url(#paint68_linear_630_40707)"/>
<path d="M92.8598 14.479C92.0136 13.6841 90.9834 13.0777 89.847 12.7055C88.8725 12.3984 87.8097 12.4367 86.864 12.8129C86.2354 13.0778 85.6927 13.4903 85.2897 14.0095C85.737 14.3506 86.2334 14.6325 86.7646 14.8471C87.7118 15.3152 88.7776 15.5388 89.8503 15.4945C90.9371 15.4269 91.9808 15.0747 92.8598 14.479Z" fill="url(#paint69_linear_630_40707)"/>
<path d="M87.7977 17.4153C87.725 16.4365 87.272 15.519 86.5274 14.8424C86.1446 14.5015 85.7101 14.2175 85.2386 14.0001C84.8439 14.5842 84.5625 15.2312 84.4077 15.9103C83.8242 18.7299 85.4159 21.1476 85.7261 21.5001C85.8295 21.3908 88.0156 19.9247 87.7977 17.4153Z" fill="url(#paint70_linear_630_40707)"/>
<path d="M96.3925 18.2816C95.6235 17.4462 94.6527 16.775 93.552 16.3175C92.6023 15.9483 91.5335 15.8994 90.546 16.1798C89.8798 16.3776 89.2848 16.7293 88.8224 17.1986C89.2364 17.5668 89.7063 17.8818 90.2185 18.1348C91.1279 18.6517 92.1735 18.9491 93.2521 18.9975C94.3542 19.0282 95.4435 18.7799 96.3925 18.2816Z" fill="url(#paint71_linear_630_40707)"/>
<path d="M90.8399 20.8834C90.8924 18.6639 89.0765 17.5847 88.9255 17.5001C88.5415 18.0071 88.247 18.5797 88.0553 19.1917C87.3132 21.7562 88.492 24.1415 88.712 24.5001C88.8106 24.4256 90.8136 23.2347 90.8399 20.8834Z" fill="url(#paint72_linear_630_40707)"/>
<path d="M99.4205 22.4491C98.7784 21.455 97.9264 20.6242 96.9286 20.0191C96.0588 19.531 95.0486 19.3807 94.0808 19.5954C93.4325 19.7552 92.837 20.0899 92.3551 20.5653C92.7103 21.0107 93.1246 21.4021 93.5858 21.7278C94.4001 22.3794 95.3635 22.8028 96.3828 22.9568C97.4215 23.09 98.4755 22.9138 99.4205 22.4491Z" fill="url(#paint73_linear_630_40707)"/>
<path d="M93.8433 24.0807C94.097 21.8572 92.398 20.6122 92.2645 20.5C91.8433 20.9706 91.5044 21.5155 91.2632 22.1097C90.2985 24.6102 91.2632 27.1107 91.4501 27.5C91.5369 27.4334 93.6063 26.4374 93.8433 24.0807Z" fill="url(#paint74_linear_630_40707)"/>
<path d="M101.944 26.6733C101.423 25.6863 100.688 24.8327 99.7927 24.1772C99.0035 23.6486 98.0561 23.4181 97.1162 23.526C96.4836 23.6172 95.8859 23.8757 95.3832 24.2755C95.6846 24.7232 96.0448 25.1271 96.4538 25.4761C97.0995 25.9984 97.8623 26.636 99.0165 26.8768C99.9915 27.0938 101.007 27.0232 101.944 26.6733Z" fill="url(#paint75_linear_630_40707)"/>
<path d="M96.3141 28.004C96.752 25.9384 95.2159 24.6193 95.1031 24.5C94.6561 24.9006 94.282 25.3795 93.9982 25.9146C92.8568 28.171 93.5768 30.6081 93.7195 31C93.8257 30.9455 95.8927 30.199 96.3141 28.004Z" fill="url(#paint76_linear_630_40707)"/>
<path d="M104.467 31.3076C104.027 30.2127 103.351 29.237 102.489 28.456C101.716 27.8225 100.756 27.485 99.7702 27.5005C99.1079 27.5332 98.4654 27.7446 97.9065 28.114C98.6871 29.5484 99.9304 30.6526 101.418 31.2333C102.407 31.5616 103.465 31.5874 104.467 31.3076Z" fill="url(#paint77_linear_630_40707)"/>
<path d="M98.7642 31.9092C99.3614 30.0001 98.008 28.6298 97.9204 28.5001C97.4647 28.8372 97.0703 29.2537 96.7552 29.7307C95.4765 31.7528 95.9633 34.1143 96.0542 34.5001C96.1483 34.4635 98.1605 33.948 98.7642 31.9092Z" fill="url(#paint78_linear_630_40707)"/>
<path d="M105.981 35.9198C105.684 34.8748 105.167 33.9172 104.471 33.1209C103.829 32.4762 103.003 32.0827 102.128 32.0034C101.539 31.9762 100.954 32.113 100.43 32.4007C101.001 33.7947 102.012 34.9259 103.285 35.5935C104.135 35.9817 105.072 36.0951 105.981 35.9198Z" fill="url(#paint79_linear_630_40707)"/>
<path d="M100.654 35.8027C100.831 35.4086 100.927 34.9886 100.935 34.5638C100.915 34.2161 100.837 33.873 100.701 33.5466C100.553 33.1717 100.343 32.8189 100.078 32.5001C99.548 32.7742 99.0775 33.1308 98.6883 33.5531C97.8314 34.4725 97.6272 35.4506 97.4704 36.3047C97.379 36.8669 97.379 37.4379 97.4704 38.0001C97.5615 37.9772 99.7932 37.6708 100.654 35.8027Z" fill="url(#paint80_linear_630_40707)"/>
<path d="M106.991 39.9833C106.741 38.9197 106.389 37.9379 105.745 37.2766C105.189 36.6227 104.435 36.184 103.607 36.0324C103.045 35.951 102.471 36.0239 101.944 36.2437C102.087 36.7153 102.293 37.1639 102.555 37.5766C102.777 37.9306 103.039 38.2546 103.338 38.5413C103.663 38.8942 104.036 39.1952 104.446 39.4344C105.225 39.8698 106.109 40.0605 106.991 39.9833Z" fill="url(#paint81_linear_630_40707)"/>
<path d="M102.103 39.9719C102.98 38.2395 101.918 36.6409 101.858 36.5001C101.335 36.7401 100.86 37.0729 100.456 37.4825C99.7261 38.235 99.2525 39.2001 99.1024 40.2395C98.9595 40.8148 98.8981 41.4075 98.9201 42.0001C99.0323 41.9895 101.122 41.8522 102.103 39.9719Z" fill="url(#paint82_linear_630_40707)"/>
<path d="M108 44.4999C107.953 44.0106 107.843 43.5296 107.673 43.0689C107.491 42.6504 107.258 42.2562 106.98 41.8952C106.506 41.2476 105.828 40.7823 105.057 40.5764C104.528 40.4565 103.976 40.4781 103.458 40.639C103.591 41.2872 103.853 41.9016 104.227 42.4455C104.601 42.9893 105.08 43.4515 105.636 43.8042C106.338 44.2662 107.161 44.5083 108 44.4999Z" fill="url(#paint83_linear_630_40707)"/>
<path d="M103.05 43.8091C103.913 42.2568 103.149 40.6352 103.081 40.5001C102.574 40.6899 102.104 40.9678 101.691 41.3213C99.9046 42.8632 100.021 45.1051 99.9252 45.5001C100.007 45.4827 102.016 45.5035 103.05 43.8091Z" fill="url(#paint84_linear_630_40707)"/>
<path d="M53.1048 13.5994C53.4571 12.8002 54.5429 12.8002 54.8952 13.5994L57.1067 18.615C57.2503 18.9408 57.5454 19.165 57.8858 19.2072L63.129 19.8576C63.9644 19.9612 64.2999 21.0415 63.6823 21.639L59.8059 25.3892C59.5542 25.6327 59.4415 25.9956 59.5083 26.3474L60.5373 31.765C60.7012 32.6282 59.8228 33.2958 59.0887 32.866L54.4815 30.1681C54.1824 29.9929 53.8176 29.9929 53.5185 30.1681L48.9113 32.866C48.1772 33.2958 47.2988 32.6282 47.4627 31.765L48.4917 26.3474C48.5585 25.9956 48.4458 25.6327 48.1941 25.3892L44.3177 21.639C43.7001 21.0415 44.0356 19.9612 44.871 19.8576L50.1142 19.2072C50.4546 19.165 50.7497 18.9408 50.8933 18.615L53.1048 13.5994Z" fill="url(#paint85_linear_630_40707)"/>
<path d="M15.3941 63V57.23H13.0641V55.95H19.2741V57.23H16.9441V63H15.3941ZM20.4325 63V55.95H23.6525C24.4391 55.95 25.0458 56.14 25.4725 56.52C25.8991 56.9 26.1125 57.43 26.1125 58.11C26.1125 58.6367 25.9758 59.0767 25.7025 59.43C25.4358 59.7767 25.0525 60.0133 24.5525 60.14C24.9058 60.2467 25.1958 60.5033 25.4225 60.91L26.5625 63H24.8525L23.6325 60.75C23.5325 60.57 23.4091 60.4467 23.2625 60.38C23.1158 60.3067 22.9425 60.27 22.7425 60.27H21.9825V63H20.4325ZM21.9825 59.15H23.3725C24.2058 59.15 24.6225 58.8167 24.6225 58.15C24.6225 57.49 24.2058 57.16 23.3725 57.16H21.9825V59.15ZM26.8486 63L30.0886 55.95H31.3386L34.5786 63H33.0186L32.3586 61.47H29.0686L28.4186 63H26.8486ZM30.6986 57.6L29.5886 60.26H31.8486L30.7186 57.6H30.6986ZM35.5879 63V55.95H36.7379L40.2579 60.44V55.95H41.6979V63H40.5579L37.0279 58.5V63H35.5879ZM46.0372 63.11C45.4839 63.11 44.9606 63.04 44.4672 62.9C43.9806 62.76 43.5739 62.57 43.2472 62.33L43.6972 61.11C44.0106 61.33 44.3672 61.5033 44.7672 61.63C45.1739 61.7567 45.5972 61.82 46.0372 61.82C46.5172 61.82 46.8606 61.7467 47.0672 61.6C47.2806 61.4467 47.3872 61.2567 47.3872 61.03C47.3872 60.8367 47.3139 60.6833 47.1672 60.57C47.0206 60.4567 46.7639 60.36 46.3972 60.28L45.2672 60.04C44.0072 59.7733 43.3772 59.12 43.3772 58.08C43.3772 57.6333 43.4972 57.2433 43.7372 56.91C43.9772 56.57 44.3106 56.3067 44.7372 56.12C45.1706 55.9333 45.6706 55.84 46.2372 55.84C46.7239 55.84 47.1806 55.91 47.6072 56.05C48.0339 56.19 48.3872 56.3867 48.6672 56.64L48.2172 57.78C47.6706 57.3467 47.0072 57.13 46.2272 57.13C45.8072 57.13 45.4806 57.2133 45.2472 57.38C45.0206 57.54 44.9072 57.75 44.9072 58.01C44.9072 58.2033 44.9772 58.36 45.1172 58.48C45.2572 58.6 45.5006 58.6967 45.8472 58.77L46.9772 59.01C48.2706 59.29 48.9172 59.9233 48.9172 60.91C48.9172 61.35 48.7972 61.7367 48.5572 62.07C48.3239 62.3967 47.9906 62.6533 47.5572 62.84C47.1306 63.02 46.6239 63.11 46.0372 63.11ZM50.3235 63V55.95H53.5435C54.3301 55.95 54.9368 56.15 55.3635 56.55C55.7901 56.9433 56.0035 57.4933 56.0035 58.2C56.0035 58.9067 55.7901 59.46 55.3635 59.86C54.9368 60.26 54.3301 60.46 53.5435 60.46H51.8735V63H50.3235ZM51.8735 59.26H53.2835C54.1035 59.26 54.5135 58.9067 54.5135 58.2C54.5135 57.5067 54.1035 57.16 53.2835 57.16H51.8735V59.26ZM55.8119 63L59.0519 55.95H60.3019L63.5419 63H61.9819L61.3219 61.47H58.0319L57.3819 63H55.8119ZM59.6619 57.6L58.5519 60.26H60.8119L59.6819 57.6H59.6619ZM64.5512 63V55.95H67.7712C68.5579 55.95 69.1645 56.14 69.5912 56.52C70.0179 56.9 70.2312 57.43 70.2312 58.11C70.2312 58.6367 70.0945 59.0767 69.8212 59.43C69.5545 59.7767 69.1712 60.0133 68.6712 60.14C69.0245 60.2467 69.3145 60.5033 69.5412 60.91L70.6812 63H68.9712L67.7512 60.75C67.6512 60.57 67.5279 60.4467 67.3812 60.38C67.2345 60.3067 67.0612 60.27 66.8612 60.27H66.1012V63H64.5512ZM66.1012 59.15H67.4912C68.3245 59.15 68.7412 58.8167 68.7412 58.15C68.7412 57.49 68.3245 57.16 67.4912 57.16H66.1012V59.15ZM71.9141 63V55.95H76.7441V57.16H73.3941V58.81H76.5241V60.03H73.3941V61.79H76.7441V63H71.9141ZM78.3688 63V55.95H79.5188L83.0388 60.44V55.95H84.4788V63H83.3388L79.8088 58.5V63H78.3688ZM89.7181 63.11C88.9581 63.11 88.3081 62.96 87.7681 62.66C87.2281 62.36 86.8114 61.94 86.5181 61.4C86.2314 60.8533 86.0881 60.21 86.0881 59.47C86.0881 58.7367 86.2314 58.1 86.5181 57.56C86.8114 57.0133 87.2281 56.59 87.7681 56.29C88.3081 55.99 88.9581 55.84 89.7181 55.84C90.1847 55.84 90.6314 55.9133 91.0581 56.06C91.4847 56.2067 91.8347 56.4067 92.1081 56.66L91.6281 57.89C91.3281 57.6567 91.0247 57.4867 90.7181 57.38C90.4181 57.2667 90.1014 57.21 89.7681 57.21C89.0947 57.21 88.5847 57.4067 88.2381 57.8C87.8981 58.1867 87.7281 58.7433 87.7281 59.47C87.7281 60.1967 87.8981 60.7567 88.2381 61.15C88.5847 61.5433 89.0947 61.74 89.7681 61.74C90.1014 61.74 90.4181 61.6867 90.7181 61.58C91.0247 61.4667 91.3281 61.2933 91.6281 61.06L92.1081 62.29C91.8347 62.5367 91.4847 62.7367 91.0581 62.89C90.6314 63.0367 90.1847 63.11 89.7181 63.11ZM95.0673 63V59.82L92.3473 55.95H94.1473L95.8673 58.43L97.5873 55.95H99.3173L96.6173 59.83V63H95.0673Z" fill="url(#paint86_linear_630_40707)"/>
<g clip-path="url(#clip0_630_40707)">
<path fill-rule="evenodd" clip-rule="evenodd" d="M54.0001 92C59.5229 92 64.0001 87.5228 64.0001 82C64.0001 76.4772 59.5229 72 54.0001 72C48.4772 72 44.0001 76.4772 44.0001 82C44.0001 87.5228 48.4772 92 54.0001 92ZM57.2949 84.488V74.9668H52.7764V77.5758H54.6859V84.488C54.6859 85.5368 53.8253 86.3976 52.7764 86.3976C51.7276 86.3976 50.8669 85.537 50.8669 84.488H48.2579C48.2579 86.9891 50.2746 89.0333 52.7764 89.0333C55.2783 89.0333 57.2949 86.9893 57.2949 84.488Z" fill="url(#paint87_linear_630_40707)"/>
</g>
<path d="M72.5212 79.2149C72.7936 78.8302 73.3976 78.9921 73.4412 79.4615L73.6582 81.7977C73.6719 81.9453 73.7494 82.0795 73.8703 82.1651L75.7851 83.5212C76.1698 83.7936 76.0079 84.3976 75.5385 84.4412L73.2023 84.6582C73.0547 84.6719 72.9205 84.7494 72.8349 84.8703L71.4788 86.7851C71.2064 87.1698 70.6024 87.0079 70.5588 86.5385L70.3418 84.2023C70.3281 84.0547 70.2506 83.9205 70.1297 83.8349L68.2149 82.4788C67.8302 82.2064 67.9921 81.6024 68.4615 81.5588L70.7977 81.3418C70.9453 81.3281 71.0795 81.2506 71.1651 81.1297L72.5212 79.2149Z" fill="url(#paint88_linear_630_40707)"/>
<path d="M34.6455 79.3532C34.6788 78.9939 35.1411 78.8701 35.3496 79.1645L36.8245 81.2471C36.8901 81.3397 36.9928 81.399 37.1058 81.4095L39.6468 81.6455C40.0061 81.6788 40.1299 82.1411 39.8355 82.3496L37.7529 83.8245C37.6603 83.8901 37.601 83.9928 37.5905 84.1058L37.3545 86.6468C37.3212 87.0061 36.8589 87.1299 36.6504 86.8355L35.1755 84.7529C35.1099 84.6603 35.0072 84.601 34.8942 84.5905L32.3532 84.3545C31.9939 84.3212 31.8701 83.8589 32.1645 83.6504L34.2471 82.1755C34.3397 82.1099 34.399 82.0072 34.4095 81.8942L34.6455 79.3532Z" fill="url(#paint89_linear_630_40707)"/>
<path d="M31.441 43.655H33.781C34.819 43.655 35.623 43.934 36.193 44.492C36.769 45.044 37.057 45.821 37.057 46.823C37.057 47.825 36.769 48.605 36.193 49.163C35.623 49.721 34.819 50 33.781 50H31.441V43.655ZM33.709 49.055C35.167 49.055 35.896 48.311 35.896 46.823C35.896 45.341 35.167 44.6 33.709 44.6H32.602V49.055H33.709ZM38.6262 43.655H39.7872V50H38.6262V43.655ZM45.7694 48.515H42.6824L42.0434 50H40.8734L43.7444 43.655H44.6894L47.5604 50H46.4084L45.7694 48.515ZM45.3824 47.615L44.2214 44.915L43.0604 47.615H45.3824ZM54.8291 43.655V50H53.8031V45.806L52.1291 48.974H51.3551L49.6721 45.851L49.6811 50H48.6551V43.655H49.5731L51.7511 47.804L53.9201 43.655H54.8291ZM59.4305 50.081C58.8125 50.081 58.2755 49.949 57.8195 49.685C57.3695 49.421 57.0215 49.043 56.7755 48.551C56.5295 48.059 56.4065 47.483 56.4065 46.823C56.4065 46.163 56.5265 45.59 56.7665 45.104C57.0125 44.612 57.3635 44.234 57.8195 43.97C58.2755 43.706 58.8125 43.574 59.4305 43.574C60.0485 43.574 60.5825 43.706 61.0325 43.97C61.4885 44.234 61.8365 44.612 62.0765 45.104C62.3225 45.59 62.4455 46.163 62.4455 46.823C62.4455 47.483 62.3225 48.059 62.0765 48.551C61.8305 49.043 61.4795 49.421 61.0235 49.685C60.5735 49.949 60.0425 50.081 59.4305 50.081ZM59.4305 49.154C60.0125 49.154 60.4655 48.953 60.7895 48.551C61.1195 48.149 61.2845 47.573 61.2845 46.823C61.2845 46.073 61.1195 45.5 60.7895 45.104C60.4655 44.702 60.0125 44.501 59.4305 44.501C58.8425 44.501 58.3835 44.702 58.0535 45.104C57.7295 45.5 57.5675 46.073 57.5675 46.823C57.5675 47.573 57.7295 48.149 58.0535 48.551C58.3835 48.953 58.8425 49.154 59.4305 49.154ZM69.3732 43.655V50H68.5002L65.0982 45.572V50H64.0182V43.655H64.8822L68.2842 48.074V43.655H69.3732ZM71.1418 43.655H73.4818C74.5198 43.655 75.3238 43.934 75.8938 44.492C76.4698 45.044 76.7578 45.821 76.7578 46.823C76.7578 47.825 76.4698 48.605 75.8938 49.163C75.3238 49.721 74.5198 50 73.4818 50H71.1418V43.655ZM73.4098 49.055C74.8678 49.055 75.5968 48.311 75.5968 46.823C75.5968 45.341 74.8678 44.6 73.4098 44.6H72.3028V49.055H73.4098Z" fill="url(#paint90_linear_630_40707)"/>
<defs>
<linearGradient id="paint0_linear_630_40707" x1="89.0747" y1="60" x2="89.0747" y2="100.5" gradientUnits="userSpaceOnUse">
<stop stop-color="#316BAC"/>
<stop offset="1" stop-color="#4C8EDA"/>
</linearGradient>
<linearGradient id="paint1_linear_630_40707" x1="103.71" y1="70.5" x2="103.71" y2="78" gradientUnits="userSpaceOnUse">
<stop stop-color="#316BAC"/>
<stop offset="1" stop-color="#4C8EDA"/>
</linearGradient>
<linearGradient id="paint2_linear_630_40707" x1="98.9159" y1="70.0001" x2="98.9159" y2="74.0001" gradientUnits="userSpaceOnUse">
<stop stop-color="#316BAC"/>
<stop offset="1" stop-color="#4C8EDA"/>
</linearGradient>
<linearGradient id="paint3_linear_630_40707" x1="101.439" y1="74.5" x2="101.439" y2="82" gradientUnits="userSpaceOnUse">
<stop stop-color="#316BAC"/>
<stop offset="1" stop-color="#4C8EDA"/>
</linearGradient>
<linearGradient id="paint4_linear_630_40707" x1="96.8971" y1="74.5" x2="96.8971" y2="78" gradientUnits="userSpaceOnUse">
<stop stop-color="#316BAC"/>
<stop offset="1" stop-color="#4C8EDA"/>
</linearGradient>
<linearGradient id="paint5_linear_630_40707" x1="98.9159" y1="79" x2="98.9159" y2="86" gradientUnits="userSpaceOnUse">
<stop stop-color="#316BAC"/>
<stop offset="1" stop-color="#4C8EDA"/>
</linearGradient>
<linearGradient id="paint6_linear_630_40707" x1="94.8784" y1="78.5" x2="94.8784" y2="81.5" gradientUnits="userSpaceOnUse">
<stop stop-color="#316BAC"/>
<stop offset="1" stop-color="#4C8EDA"/>
</linearGradient>
<linearGradient id="paint7_linear_630_40707" x1="95.8878" y1="83" x2="95.8878" y2="90" gradientUnits="userSpaceOnUse">
<stop stop-color="#316BAC"/>
<stop offset="1" stop-color="#4C8EDA"/>
</linearGradient>
<linearGradient id="paint8_linear_630_40707" x1="92.1028" y1="82.0001" x2="92.1028" y2="85.0001" gradientUnits="userSpaceOnUse">
<stop stop-color="#316BAC"/>
<stop offset="1" stop-color="#4C8EDA"/>
</linearGradient>
<linearGradient id="paint9_linear_630_40707" x1="92.3551" y1="86.5001" x2="92.3551" y2="93.5001" gradientUnits="userSpaceOnUse">
<stop stop-color="#316BAC"/>
<stop offset="1" stop-color="#4C8EDA"/>
</linearGradient>
<linearGradient id="paint10_linear_630_40707" x1="89.5794" y1="85.5001" x2="89.5794" y2="88.5001" gradientUnits="userSpaceOnUse">
<stop stop-color="#316BAC"/>
<stop offset="1" stop-color="#4C8EDA"/>
</linearGradient>
<linearGradient id="paint11_linear_630_40707" x1="88.8224" y1="90.0001" x2="88.8224" y2="96.5001" gradientUnits="userSpaceOnUse">
<stop stop-color="#316BAC"/>
<stop offset="1" stop-color="#4C8EDA"/>
</linearGradient>
<linearGradient id="paint12_linear_630_40707" x1="86.299" y1="89.0001" x2="86.299" y2="91.5001" gradientUnits="userSpaceOnUse">
<stop stop-color="#316BAC"/>
<stop offset="1" stop-color="#4C8EDA"/>
</linearGradient>
<linearGradient id="paint13_linear_630_40707" x1="85.2897" y1="93.0001" x2="85.2897" y2="99.0001" gradientUnits="userSpaceOnUse">
<stop stop-color="#316BAC"/>
<stop offset="1" stop-color="#4C8EDA"/>
</linearGradient>
<linearGradient id="paint14_linear_630_40707" x1="82.7663" y1="91.5" x2="82.7663" y2="94" gradientUnits="userSpaceOnUse">
<stop stop-color="#316BAC"/>
<stop offset="1" stop-color="#4C8EDA"/>
</linearGradient>
<linearGradient id="paint15_linear_630_40707" x1="81.7569" y1="95.5" x2="81.7569" y2="101" gradientUnits="userSpaceOnUse">
<stop stop-color="#316BAC"/>
<stop offset="1" stop-color="#4C8EDA"/>
</linearGradient>
<linearGradient id="paint16_linear_630_40707" x1="79.7382" y1="93.5001" x2="79.7382" y2="96.5001" gradientUnits="userSpaceOnUse">
<stop stop-color="#316BAC"/>
<stop offset="1" stop-color="#4C8EDA"/>
</linearGradient>
<linearGradient id="paint17_linear_630_40707" x1="40.1215" y1="85.5001" x2="40.1215" y2="104" gradientUnits="userSpaceOnUse">
<stop stop-color="#316BAC"/>
<stop offset="1" stop-color="#4C8EDA"/>
</linearGradient>
<linearGradient id="paint18_linear_630_40707" x1="50.4673" y1="104" x2="50.4673" y2="108" gradientUnits="userSpaceOnUse">
<stop stop-color="#316BAC"/>
<stop offset="1" stop-color="#4C8EDA"/>
</linearGradient>
<linearGradient id="paint19_linear_630_40707" x1="51.4766" y1="98.0001" x2="51.4766" y2="104" gradientUnits="userSpaceOnUse">
<stop stop-color="#316BAC"/>
<stop offset="1" stop-color="#4C8EDA"/>
</linearGradient>
<linearGradient id="paint20_linear_630_40707" x1="45.6728" y1="103.5" x2="45.6728" y2="107" gradientUnits="userSpaceOnUse">
<stop stop-color="#316BAC"/>
<stop offset="1" stop-color="#4C8EDA"/>
</linearGradient>
<linearGradient id="paint21_linear_630_40707" x1="46.6822" y1="97.5001" x2="46.6822" y2="103.5" gradientUnits="userSpaceOnUse">
<stop stop-color="#316BAC"/>
<stop offset="1" stop-color="#4C8EDA"/>
</linearGradient>
<linearGradient id="paint22_linear_630_40707" x1="40.8785" y1="102.5" x2="40.8785" y2="106" gradientUnits="userSpaceOnUse">
<stop stop-color="#316BAC"/>
<stop offset="1" stop-color="#4C8EDA"/>
</linearGradient>
<linearGradient id="paint23_linear_630_40707" x1="42.3925" y1="96.5" x2="42.3925" y2="102.5" gradientUnits="userSpaceOnUse">
<stop stop-color="#316BAC"/>
<stop offset="1" stop-color="#4C8EDA"/>
</linearGradient>
<linearGradient id="paint24_linear_630_40707" x1="36.3364" y1="101" x2="36.3364" y2="104" gradientUnits="userSpaceOnUse">
<stop stop-color="#316BAC"/>
<stop offset="1" stop-color="#4C8EDA"/>
</linearGradient>
<linearGradient id="paint25_linear_630_40707" x1="38.1028" y1="95.5" x2="38.1028" y2="101.5" gradientUnits="userSpaceOnUse">
<stop stop-color="#316BAC"/>
<stop offset="1" stop-color="#4C8EDA"/>
</linearGradient>
<linearGradient id="paint26_linear_630_40707" x1="31.7944" y1="99" x2="31.7944" y2="102" gradientUnits="userSpaceOnUse">
<stop stop-color="#316BAC"/>
<stop offset="1" stop-color="#4C8EDA"/>
</linearGradient>
<linearGradient id="paint27_linear_630_40707" x1="33.8131" y1="93.5001" x2="33.8131" y2="100" gradientUnits="userSpaceOnUse">
<stop stop-color="#316BAC"/>
<stop offset="1" stop-color="#4C8EDA"/>
</linearGradient>
<linearGradient id="paint28_linear_630_40707" x1="27.5046" y1="97.0001" x2="27.5046" y2="99.5001" gradientUnits="userSpaceOnUse">
<stop stop-color="#316BAC"/>
<stop offset="1" stop-color="#4C8EDA"/>
</linearGradient>
<linearGradient id="paint29_linear_630_40707" x1="29.7757" y1="91.5" x2="29.7757" y2="97.5" gradientUnits="userSpaceOnUse">
<stop stop-color="#316BAC"/>
<stop offset="1" stop-color="#4C8EDA"/>
</linearGradient>
<linearGradient id="paint30_linear_630_40707" x1="23.7196" y1="94.5001" x2="23.7196" y2="97.0001" gradientUnits="userSpaceOnUse">
<stop stop-color="#316BAC"/>
<stop offset="1" stop-color="#4C8EDA"/>
</linearGradient>
<linearGradient id="paint31_linear_630_40707" x1="26.243" y1="89.5001" x2="26.243" y2="95.5001" gradientUnits="userSpaceOnUse">
<stop stop-color="#316BAC"/>
<stop offset="1" stop-color="#4C8EDA"/>
</linearGradient>
<linearGradient id="paint32_linear_630_40707" x1="20.4392" y1="91.5" x2="20.4392" y2="94.5" gradientUnits="userSpaceOnUse">
<stop stop-color="#316BAC"/>
<stop offset="1" stop-color="#4C8EDA"/>
</linearGradient>
<linearGradient id="paint33_linear_630_40707" x1="22.9626" y1="87" x2="22.9626" y2="93" gradientUnits="userSpaceOnUse">
<stop stop-color="#316BAC"/>
<stop offset="1" stop-color="#4C8EDA"/>
</linearGradient>
<linearGradient id="paint34_linear_630_40707" x1="8.32707" y1="27" x2="8.32707" y2="78" gradientUnits="userSpaceOnUse">
<stop stop-color="#316BAC"/>
<stop offset="1" stop-color="#4C8EDA"/>
</linearGradient>
<linearGradient id="paint35_linear_630_40707" x1="3.53267" y1="63.5" x2="3.53267" y2="68.5" gradientUnits="userSpaceOnUse">
<stop stop-color="#316BAC"/>
<stop offset="1" stop-color="#4C8EDA"/>
</linearGradient>
<linearGradient id="paint36_linear_630_40707" x1="8.32706" y1="62.0001" x2="8.32706" y2="68.5001" gradientUnits="userSpaceOnUse">
<stop stop-color="#316BAC"/>
<stop offset="1" stop-color="#4C8EDA"/>
</linearGradient>
<linearGradient id="paint37_linear_630_40707" x1="2.7757" y1="58.5" x2="2.7757" y2="64" gradientUnits="userSpaceOnUse">
<stop stop-color="#316BAC"/>
<stop offset="1" stop-color="#4C8EDA"/>
</linearGradient>
<linearGradient id="paint38_linear_630_40707" x1="7.57012" y1="58.0001" x2="7.57012" y2="63.5001" gradientUnits="userSpaceOnUse">
<stop stop-color="#316BAC"/>
<stop offset="1" stop-color="#4C8EDA"/>
</linearGradient>
<linearGradient id="paint39_linear_630_40707" x1="2.27103" y1="53.5001" x2="2.27103" y2="59.0001" gradientUnits="userSpaceOnUse">
<stop stop-color="#316BAC"/>
<stop offset="1" stop-color="#4C8EDA"/>
</linearGradient>
<linearGradient id="paint40_linear_630_40707" x1="7.06548" y1="54.0001" x2="7.06548" y2="59.0001" gradientUnits="userSpaceOnUse">
<stop stop-color="#316BAC"/>
<stop offset="1" stop-color="#4C8EDA"/>
</linearGradient>
<linearGradient id="paint41_linear_630_40707" x1="2.52333" y1="48.5001" x2="2.52333" y2="54.5001" gradientUnits="userSpaceOnUse">
<stop stop-color="#316BAC"/>
<stop offset="1" stop-color="#4C8EDA"/>
</linearGradient>
<linearGradient id="paint42_linear_630_40707" x1="7.06548" y1="49.5001" x2="7.06548" y2="54.0001" gradientUnits="userSpaceOnUse">
<stop stop-color="#316BAC"/>
<stop offset="1" stop-color="#4C8EDA"/>
</linearGradient>
<linearGradient id="paint43_linear_630_40707" x1="2.77575" y1="43.5" x2="2.77575" y2="49.5" gradientUnits="userSpaceOnUse">
<stop stop-color="#316BAC"/>
<stop offset="1" stop-color="#4C8EDA"/>
</linearGradient>
<linearGradient id="paint44_linear_630_40707" x1="7.31781" y1="45.5001" x2="7.31781" y2="49.5001" gradientUnits="userSpaceOnUse">
<stop stop-color="#316BAC"/>
<stop offset="1" stop-color="#4C8EDA"/>
</linearGradient>
<linearGradient id="paint45_linear_630_40707" x1="4.03733" y1="38.5" x2="4.03733" y2="45" gradientUnits="userSpaceOnUse">
<stop stop-color="#316BAC"/>
<stop offset="1" stop-color="#4C8EDA"/>
</linearGradient>
<linearGradient id="paint46_linear_630_40707" x1="8.32709" y1="41.0001" x2="8.32709" y2="45.0001" gradientUnits="userSpaceOnUse">
<stop stop-color="#316BAC"/>
<stop offset="1" stop-color="#4C8EDA"/>
</linearGradient>
<linearGradient id="paint47_linear_630_40707" x1="5.04673" y1="34.5" x2="5.04673" y2="40.5" gradientUnits="userSpaceOnUse">
<stop stop-color="#316BAC"/>
<stop offset="1" stop-color="#4C8EDA"/>
</linearGradient>
<linearGradient id="paint48_linear_630_40707" x1="9.33649" y1="37.0001" x2="9.33649" y2="40.5001" gradientUnits="userSpaceOnUse">
<stop stop-color="#316BAC"/>
<stop offset="1" stop-color="#4C8EDA"/>
</linearGradient>
<linearGradient id="paint49_linear_630_40707" x1="6.81307" y1="30.5" x2="6.81307" y2="36.5" gradientUnits="userSpaceOnUse">
<stop stop-color="#316BAC"/>
<stop offset="1" stop-color="#4C8EDA"/>
</linearGradient>
<linearGradient id="paint50_linear_630_40707" x1="10.3458" y1="33.5001" x2="10.3458" y2="36.5001" gradientUnits="userSpaceOnUse">
<stop stop-color="#316BAC"/>
<stop offset="1" stop-color="#4C8EDA"/>
</linearGradient>
<linearGradient id="paint51_linear_630_40707" x1="42.6448" y1="3.50002" x2="42.6448" y2="20" gradientUnits="userSpaceOnUse">
<stop stop-color="#316BAC"/>
<stop offset="1" stop-color="#4C8EDA"/>
</linearGradient>
<linearGradient id="paint52_linear_630_40707" x1="27.2523" y1="5.50008" x2="27.2523" y2="13.0001" gradientUnits="userSpaceOnUse">
<stop stop-color="#316BAC"/>
<stop offset="1" stop-color="#4C8EDA"/>
</linearGradient>
<linearGradient id="paint53_linear_630_40707" x1="29.7756" y1="11.5" x2="29.7756" y2="15" gradientUnits="userSpaceOnUse">
<stop stop-color="#316BAC"/>
<stop offset="1" stop-color="#4C8EDA"/>
</linearGradient>
<linearGradient id="paint54_linear_630_40707" x1="31.542" y1="3.50002" x2="31.542" y2="10.5" gradientUnits="userSpaceOnUse">
<stop stop-color="#316BAC"/>
<stop offset="1" stop-color="#4C8EDA"/>
</linearGradient>
<linearGradient id="paint55_linear_630_40707" x1="33.5608" y1="9.50008" x2="33.5608" y2="13.0001" gradientUnits="userSpaceOnUse">
<stop stop-color="#316BAC"/>
<stop offset="1" stop-color="#4C8EDA"/>
</linearGradient>
<linearGradient id="paint56_linear_630_40707" x1="36.0841" y1="2.00009" x2="36.0841" y2="8.00009" gradientUnits="userSpaceOnUse">
<stop stop-color="#316BAC"/>
<stop offset="1" stop-color="#4C8EDA"/>
</linearGradient>
<linearGradient id="paint57_linear_630_40707" x1="37.5981" y1="7.49998" x2="37.5981" y2="11.5" gradientUnits="userSpaceOnUse">
<stop stop-color="#316BAC"/>
<stop offset="1" stop-color="#4C8EDA"/>
</linearGradient>
<linearGradient id="paint58_linear_630_40707" x1="41.1308" y1="1.00006" x2="41.1308" y2="6.50006" gradientUnits="userSpaceOnUse">
<stop stop-color="#316BAC"/>
<stop offset="1" stop-color="#4C8EDA"/>
</linearGradient>
<linearGradient id="paint59_linear_630_40707" x1="41.8878" y1="6.00009" x2="41.8878" y2="10.0001" gradientUnits="userSpaceOnUse">
<stop stop-color="#316BAC"/>
<stop offset="1" stop-color="#4C8EDA"/>
</linearGradient>
<linearGradient id="paint60_linear_630_40707" x1="45.9252" y1="3.05176e-05" x2="45.9252" y2="5.00003" gradientUnits="userSpaceOnUse">
<stop stop-color="#316BAC"/>
<stop offset="1" stop-color="#4C8EDA"/>
</linearGradient>
<linearGradient id="paint61_linear_630_40707" x1="46.1776" y1="5.00006" x2="46.1776" y2="9.00006" gradientUnits="userSpaceOnUse">
<stop stop-color="#316BAC"/>
<stop offset="1" stop-color="#4C8EDA"/>
</linearGradient>
<linearGradient id="paint62_linear_630_40707" x1="50.7196" y1="3.05176e-05" x2="50.7196" y2="4.50003" gradientUnits="userSpaceOnUse">
<stop stop-color="#316BAC"/>
<stop offset="1" stop-color="#4C8EDA"/>
</linearGradient>
<linearGradient id="paint63_linear_630_40707" x1="50.7196" y1="4.50005" x2="50.7196" y2="8.50005" gradientUnits="userSpaceOnUse">
<stop stop-color="#316BAC"/>
<stop offset="1" stop-color="#4C8EDA"/>
</linearGradient>
<linearGradient id="paint64_linear_630_40707" x1="55.2616" y1="3.05176e-05" x2="55.2616" y2="4.00003" gradientUnits="userSpaceOnUse">
<stop stop-color="#316BAC"/>
<stop offset="1" stop-color="#4C8EDA"/>
</linearGradient>
<linearGradient id="paint65_linear_630_40707" x1="54.757" y1="4.00003" x2="54.757" y2="8.50003" gradientUnits="userSpaceOnUse">
<stop stop-color="#316BAC"/>
<stop offset="1" stop-color="#4C8EDA"/>
</linearGradient>
<linearGradient id="paint66_linear_630_40707" x1="59.5513" y1="0.500046" x2="59.5513" y2="4.00005" gradientUnits="userSpaceOnUse">
<stop stop-color="#316BAC"/>
<stop offset="1" stop-color="#4C8EDA"/>
</linearGradient>
<linearGradient id="paint67_linear_630_40707" x1="58.7943" y1="4.00003" x2="58.7943" y2="8.50003" gradientUnits="userSpaceOnUse">
<stop stop-color="#316BAC"/>
<stop offset="1" stop-color="#4C8EDA"/>
</linearGradient>
<linearGradient id="paint68_linear_630_40707" x1="90.5887" y1="8.50005" x2="90.5887" y2="50.5001" gradientUnits="userSpaceOnUse">
<stop stop-color="#316BAC"/>
<stop offset="1" stop-color="#4C8EDA"/>
</linearGradient>
<linearGradient id="paint69_linear_630_40707" x1="89.0747" y1="12.5" x2="89.0747" y2="15.5" gradientUnits="userSpaceOnUse">
<stop stop-color="#316BAC"/>
<stop offset="1" stop-color="#4C8EDA"/>
</linearGradient>
<linearGradient id="paint70_linear_630_40707" x1="86.0466" y1="14.0001" x2="86.0466" y2="21.5001" gradientUnits="userSpaceOnUse">
<stop stop-color="#316BAC"/>
<stop offset="1" stop-color="#4C8EDA"/>
</linearGradient>
<linearGradient id="paint71_linear_630_40707" x1="92.6074" y1="16" x2="92.6074" y2="19" gradientUnits="userSpaceOnUse">
<stop stop-color="#316BAC"/>
<stop offset="1" stop-color="#4C8EDA"/>
</linearGradient>
<linearGradient id="paint72_linear_630_40707" x1="89.327" y1="17.5001" x2="89.327" y2="24.5001" gradientUnits="userSpaceOnUse">
<stop stop-color="#316BAC"/>
<stop offset="1" stop-color="#4C8EDA"/>
</linearGradient>
<linearGradient id="paint73_linear_630_40707" x1="95.8878" y1="19.5" x2="95.8878" y2="23" gradientUnits="userSpaceOnUse">
<stop stop-color="#316BAC"/>
<stop offset="1" stop-color="#4C8EDA"/>
</linearGradient>
<linearGradient id="paint74_linear_630_40707" x1="92.3551" y1="20.5" x2="92.3551" y2="27.5" gradientUnits="userSpaceOnUse">
<stop stop-color="#316BAC"/>
<stop offset="1" stop-color="#4C8EDA"/>
</linearGradient>
<linearGradient id="paint75_linear_630_40707" x1="98.6636" y1="23.5" x2="98.6636" y2="27" gradientUnits="userSpaceOnUse">
<stop stop-color="#316BAC"/>
<stop offset="1" stop-color="#4C8EDA"/>
</linearGradient>
<linearGradient id="paint76_linear_630_40707" x1="94.8784" y1="24.5" x2="94.8784" y2="31" gradientUnits="userSpaceOnUse">
<stop stop-color="#316BAC"/>
<stop offset="1" stop-color="#4C8EDA"/>
</linearGradient>
<linearGradient id="paint77_linear_630_40707" x1="101.187" y1="27.5" x2="101.187" y2="31.5" gradientUnits="userSpaceOnUse">
<stop stop-color="#316BAC"/>
<stop offset="1" stop-color="#4C8EDA"/>
</linearGradient>
<linearGradient id="paint78_linear_630_40707" x1="97.4018" y1="28.5001" x2="97.4018" y2="34.5001" gradientUnits="userSpaceOnUse">
<stop stop-color="#316BAC"/>
<stop offset="1" stop-color="#4C8EDA"/>
</linearGradient>
<linearGradient id="paint79_linear_630_40707" x1="103.206" y1="32" x2="103.206" y2="36" gradientUnits="userSpaceOnUse">
<stop stop-color="#316BAC"/>
<stop offset="1" stop-color="#4C8EDA"/>
</linearGradient>
<linearGradient id="paint80_linear_630_40707" x1="99.1682" y1="32.5001" x2="99.1682" y2="38.0001" gradientUnits="userSpaceOnUse">
<stop stop-color="#316BAC"/>
<stop offset="1" stop-color="#4C8EDA"/>
</linearGradient>
<linearGradient id="paint81_linear_630_40707" x1="104.467" y1="36" x2="104.467" y2="40" gradientUnits="userSpaceOnUse">
<stop stop-color="#316BAC"/>
<stop offset="1" stop-color="#4C8EDA"/>
</linearGradient>
<linearGradient id="paint82_linear_630_40707" x1="100.682" y1="36.5001" x2="100.682" y2="42.0001" gradientUnits="userSpaceOnUse">
<stop stop-color="#316BAC"/>
<stop offset="1" stop-color="#4C8EDA"/>
</linearGradient>
<linearGradient id="paint83_linear_630_40707" x1="105.729" y1="40.5001" x2="105.729" y2="44.5001" gradientUnits="userSpaceOnUse">
<stop stop-color="#316BAC"/>
<stop offset="1" stop-color="#4C8EDA"/>
</linearGradient>
<linearGradient id="paint84_linear_630_40707" x1="101.692" y1="40.5001" x2="101.692" y2="45.5001" gradientUnits="userSpaceOnUse">
<stop stop-color="#316BAC"/>
<stop offset="1" stop-color="#4C8EDA"/>
</linearGradient>
<linearGradient id="paint85_linear_630_40707" x1="54" y1="13" x2="54" y2="33" gradientUnits="userSpaceOnUse">
<stop stop-color="#316BAC"/>
<stop offset="1" stop-color="#4C8EDA"/>
</linearGradient>
<linearGradient id="paint86_linear_630_40707" x1="56" y1="54" x2="56" y2="66" gradientUnits="userSpaceOnUse">
<stop stop-color="#316BAC"/>
<stop offset="1" stop-color="#4C8EDA"/>
</linearGradient>
<linearGradient id="paint87_linear_630_40707" x1="54.0001" y1="72" x2="54.0001" y2="92" gradientUnits="userSpaceOnUse">
<stop stop-color="#316BAC"/>
<stop offset="1" stop-color="#4C8EDA"/>
</linearGradient>
<linearGradient id="paint88_linear_630_40707" x1="72" y1="79" x2="72" y2="87" gradientUnits="userSpaceOnUse">
<stop stop-color="#316BAC"/>
<stop offset="1" stop-color="#4C8EDA"/>
</linearGradient>
<linearGradient id="paint89_linear_630_40707" x1="36" y1="79" x2="36" y2="87" gradientUnits="userSpaceOnUse">
<stop stop-color="#316BAC"/>
<stop offset="1" stop-color="#4C8EDA"/>
</linearGradient>
<linearGradient id="paint90_linear_630_40707" x1="54" y1="40" x2="54" y2="54" gradientUnits="userSpaceOnUse">
<stop stop-color="#316BAC"/>
<stop offset="1" stop-color="#4C8EDA"/>
</linearGradient>
<clipPath id="clip0_630_40707">
<rect width="20" height="20" fill="white" transform="translate(44.0001 72)"/>
</clipPath>
</defs>
</svg>