<?xml version="1.0" encoding="UTF-8"?>
<svg id="Layer_1" xmlns="http://www.w3.org/2000/svg" xmlns:xlink="http://www.w3.org/1999/xlink" viewBox="0 0 401.89 115.28">
  <defs>
    <style>
      .cls-1 {
        fill: url(#linear-gradient-8);
      }

      .cls-2 {
        fill: url(#linear-gradient-7);
      }

      .cls-3 {
        fill: url(#linear-gradient-5);
      }

      .cls-4 {
        fill: url(#linear-gradient-6);
      }

      .cls-5 {
        fill: url(#linear-gradient-9);
      }

      .cls-6 {
        fill: url(#linear-gradient-4);
      }

      .cls-7 {
        fill: url(#linear-gradient-3);
      }

      .cls-8 {
        fill: url(#linear-gradient-2);
      }

      .cls-9 {
        fill: url(#linear-gradient);
      }

      .cls-10 {
        fill: url(#linear-gradient-10);
      }

      .cls-11 {
        fill: url(#linear-gradient-11);
      }

      .cls-12 {
        fill: url(#linear-gradient-12);
      }

      .cls-13 {
        fill: url(#linear-gradient-13);
      }

      .cls-14 {
        fill: url(#linear-gradient-19);
      }

      .cls-15 {
        fill: url(#linear-gradient-14);
      }

      .cls-16 {
        fill: url(#linear-gradient-21);
      }

      .cls-17 {
        fill: url(#linear-gradient-20);
      }

      .cls-18 {
        fill: url(#linear-gradient-22);
      }

      .cls-19 {
        fill: url(#linear-gradient-23);
      }

      .cls-20 {
        fill: url(#linear-gradient-28);
      }

      .cls-21 {
        fill: url(#linear-gradient-25);
      }

      .cls-22 {
        fill: url(#linear-gradient-31);
      }

      .cls-23 {
        fill: url(#linear-gradient-30);
      }

      .cls-24 {
        fill: url(#linear-gradient-15);
      }

      .cls-25 {
        fill: url(#linear-gradient-16);
      }

      .cls-26 {
        fill: url(#linear-gradient-17);
      }

      .cls-27 {
        fill: url(#linear-gradient-18);
      }

      .cls-28 {
        fill: url(#linear-gradient-27);
      }

      .cls-29 {
        fill: url(#linear-gradient-24);
      }

      .cls-30 {
        fill: url(#linear-gradient-26);
      }

      .cls-31 {
        fill: url(#linear-gradient-29);
      }
    </style>
    <linearGradient id="linear-gradient" x1="-47.55" y1="29.03" x2="602.85" y2="175.78" gradientUnits="userSpaceOnUse">
      <stop offset="0" stop-color="#2379fa"/>
      <stop offset="1" stop-color="#ffa071"/>
    </linearGradient>
    <linearGradient id="linear-gradient-2" x1="-45.34" y1="19.25" x2="605.06" y2="166" xlink:href="#linear-gradient"/>
    <linearGradient id="linear-gradient-3" x1="-42.99" y1="8.81" x2="607.41" y2="155.56" xlink:href="#linear-gradient"/>
    <linearGradient id="linear-gradient-4" x1="-40.79" y1="-.9" x2="609.6" y2="145.84" xlink:href="#linear-gradient"/>
    <linearGradient id="linear-gradient-5" x1="-37.57" y1="-15.17" x2="612.82" y2="131.57" xlink:href="#linear-gradient"/>
    <linearGradient id="linear-gradient-6" x1="-36.36" y1="-20.56" x2="614.04" y2="126.18" xlink:href="#linear-gradient"/>
    <linearGradient id="linear-gradient-7" x1="-31.61" y1="-41.6" x2="618.79" y2="105.14" xlink:href="#linear-gradient"/>
    <linearGradient id="linear-gradient-8" x1="-28.71" y1="-54.46" x2="621.69" y2="92.29" xlink:href="#linear-gradient"/>
    <linearGradient id="linear-gradient-9" x1="-29.59" y1="-50.55" x2="620.81" y2="96.2" xlink:href="#linear-gradient"/>
    <linearGradient id="linear-gradient-10" x1="-27.27" y1="-60.86" x2="623.13" y2="85.89" xlink:href="#linear-gradient"/>
    <linearGradient id="linear-gradient-11" x1="-27.15" y1="-61.4" x2="623.25" y2="85.35" xlink:href="#linear-gradient"/>
    <linearGradient id="linear-gradient-12" x1="-33.56" y1="-32.98" x2="616.84" y2="113.76" xlink:href="#linear-gradient"/>
    <linearGradient id="linear-gradient-13" x1="-26.74" y1="-63.19" x2="623.66" y2="83.56" xlink:href="#linear-gradient"/>
    <linearGradient id="linear-gradient-14" x1="-46.51" y1="24.44" x2="603.89" y2="171.18" xlink:href="#linear-gradient"/>
    <linearGradient id="linear-gradient-15" x1="-46.11" y1="22.68" x2="604.28" y2="169.42" xlink:href="#linear-gradient"/>
    <linearGradient id="linear-gradient-16" x1="-45.9" y1="21.72" x2="604.5" y2="168.46" xlink:href="#linear-gradient"/>
    <linearGradient id="linear-gradient-17" x1="-44.54" y1="15.69" x2="605.86" y2="162.43" xlink:href="#linear-gradient"/>
    <linearGradient id="linear-gradient-18" x1="-44.55" y1="15.72" x2="605.85" y2="162.47" xlink:href="#linear-gradient"/>
    <linearGradient id="linear-gradient-19" x1="-44.07" y1="13.62" x2="606.33" y2="160.36" xlink:href="#linear-gradient"/>
    <linearGradient id="linear-gradient-20" x1="-43.4" y1="10.63" x2="607" y2="157.37" xlink:href="#linear-gradient"/>
    <linearGradient id="linear-gradient-21" x1="-43.14" y1="9.51" x2="607.26" y2="156.25" xlink:href="#linear-gradient"/>
    <linearGradient id="linear-gradient-22" x1="-42.92" y1="8.53" x2="607.48" y2="155.28" xlink:href="#linear-gradient"/>
    <linearGradient id="linear-gradient-23" x1="-41.5" y1="2.21" x2="608.9" y2="148.96" xlink:href="#linear-gradient"/>
    <linearGradient id="linear-gradient-24" x1="-41.32" y1="1.42" x2="609.08" y2="148.17" xlink:href="#linear-gradient"/>
    <linearGradient id="linear-gradient-25" x1="-40.9" y1="-.43" x2="609.5" y2="146.32" xlink:href="#linear-gradient"/>
    <linearGradient id="linear-gradient-26" x1="-41" y1=".03" x2="609.4" y2="146.77" xlink:href="#linear-gradient"/>
    <linearGradient id="linear-gradient-27" x1="-41.27" y1="1.22" x2="609.13" y2="147.97" xlink:href="#linear-gradient"/>
    <linearGradient id="linear-gradient-28" x1="-40.05" y1="-4.21" x2="610.35" y2="142.54" xlink:href="#linear-gradient"/>
    <linearGradient id="linear-gradient-29" x1="-39.53" y1="-6.5" x2="610.87" y2="140.24" xlink:href="#linear-gradient"/>
    <linearGradient id="linear-gradient-30" x1="-39.09" y1="-8.44" x2="611.31" y2="138.3" xlink:href="#linear-gradient"/>
    <linearGradient id="linear-gradient-31" x1="-38.58" y1="-10.74" x2="611.82" y2="136.01" xlink:href="#linear-gradient"/>
  </defs>
  <g id="logo__x28_2_x29__1">
    <path id="Vector_40" class="cls-9" d="M47.63,74.27v-12.91c-4.48,3.05-7.62,5.09-9.35,6.04-4.1,2.23-7.62,3.31-10.76,3.31-3.58.06-7.04-1.4-9.54-4.01-2.56-2.48-4.03-5.98-4.03-9.54.25-3.88,1.09-7.76,2.43-11.44,2.82-8.2,7.56-14.18,14.15-17.99,3.46-1.97,7.36-2.99,11.27-2.92h.25l1.92-.06c2.18,0,3.2.83,3.01,2.54-7.36.32-14.28,3.56-19.27,8.9-2.5,2.67-4.42,5.79-5.76,9.16-1.41,3.37-2.11,6.99-2.11,10.68s.96,6.23,2.82,7.82c1.92,1.59,4.35,2.42,7.3,2.42,2.56,0,6.08-1.08,10.63-3.31,2.88-1.4,5.06-2.99,6.47-4.77.64-.76,1.03-1.72,1.09-2.67v-10.43c-1.41,0-4.74.57-9.93,1.65-5.19,1.08-8.19,1.72-8.96,1.84-.25-.13-.51-.32-.83-.45-.32-.13-.51-.44-.58-.76-.06-.7.96-1.78,3.14-3.24.51-.25,3.65-.83,9.35-1.65,5.7-.83,9.35-1.34,10.95-1.59,1.6-.25,2.88-.44,3.91-.57.58.06,1.22.06,1.79-.06.64-.13,1.34-.13,1.98-.13,1.54.06,2.24.89,2.11,2.48l-5.89,2.42c-.9,2.86-1.35,8.27-1.35,16.21l.13,10.49v2.61c-1.28.64-2.69,1.02-4.1,1.08-1.28-.06-2.05-.44-2.24-1.14Z"/>
    <path id="Vector_41" class="cls-8" d="M66,59.01c-1.22-2.86-1.79-5.91-1.73-8.97-.06-3.12.51-6.23,1.66-9.16,1.02-2.54,2.63-4.9,4.55-6.87,4.1-4.01,9.29-5.98,15.49-5.98s11.85,1.46,16.07,4.45c4.74,3.37,7.11,8.2,7.11,14.56,0,7.82-1.79,13.54-5.44,17.29-3.65,3.69-9.29,5.6-16.97,5.53-10.63-.06-17.54-3.62-20.74-10.87ZM70.1,48.64c0,11.13,5.63,16.66,16.9,16.66,5.57,0,10.05-1.65,13.51-4.96,3.46-3.31,5.18-7.57,5.18-12.78s-2.05-8.71-6.15-11.32c-3.52-2.23-7.94-3.37-13.25-3.37-4.23,0-8.26,1.65-11.27,4.58-3.2,2.86-4.99,6.93-4.93,11.19Z"/>
    <path id="Vector_42" class="cls-7" d="M114.73,59.01c-1.21-2.86-1.79-5.91-1.73-8.97-.06-3.12.51-6.23,1.67-9.16,1.02-2.54,2.62-4.9,4.54-6.87,4.1-4.01,9.29-5.98,15.5-5.98s11.85,1.46,16.07,4.45c4.74,3.37,7.11,8.2,7.11,14.56,0,7.82-1.79,13.54-5.44,17.29-3.65,3.69-9.28,5.6-16.97,5.6-10.56-.06-17.54-3.69-20.74-10.94ZM118.83,48.64c0,11.13,5.63,16.66,16.9,16.66,5.57,0,10.05-1.65,13.51-4.96,3.46-3.31,5.18-7.57,5.18-12.78s-2.05-8.71-6.15-11.32c-3.52-2.23-7.94-3.37-13.25-3.37-4.22,0-8.26,1.65-11.27,4.58-3.2,2.86-4.99,6.93-4.93,11.19Z"/>
    <path id="Vector_43" class="cls-6" d="M167.61,27.53c3.52-1.21,8.13-1.84,13.96-1.84,10.56,0,17.8,2.61,21.64,7.76,1.54,1.97,2.24,4.51,2.24,7.57.06.44.06.83.06,1.27,0,4.71-2.75,9.47-8.32,14.31-5.06,4.58-11.33,8.2-18.76,11-4.93,1.91-9.03,2.8-12.23,2.8-1.15,0-2.31-.19-3.39-.57V25.82h.96c.9-.06,1.79.13,2.63.51.64.25,1.02.7,1.22,1.21ZM200.71,41.59c-.45-4.2-2.75-7.31-7.04-9.28-3.2-1.53-7.17-2.29-11.91-2.29l-1.28.06c-3.97,0-7.94.7-11.65,2.1v33.64c3.33,0,7.43-1.21,12.42-3.62,8.64-4.26,14.53-9.16,17.74-14.75,1.09-1.72,1.73-3.75,1.73-5.85Z"/>
    <path id="Vector_44" class="cls-3" d="M225.88,69.69c-2.11-5.15-4.48-10.24-7.11-15.13-3.46-6.68-5.76-11.13-6.92-13.35-2.5-5.15-3.78-8.14-3.78-9.03,0-.64,1.22-1.4,3.65-2.35,1.66,3.05,3.2,6.1,4.67,9.16,1.47,3.05,2.88,5.91,4.29,8.58,3.39,6.55,6.15,11.06,8.26,13.54.77-.76,2.43-3.94,5.12-9.6l5.82-12.21c3.14-6.61,5.12-10.87,6.02-12.91,1.66-1.97,3.07-2.99,4.16-2.99s1.73,1.02,1.73,2.99l-20.17,43.94c-.96.57-1.99.83-3.07.76-1.09.13-2.18-.44-2.69-1.4Z"/>
    <path id="Vector_45" class="cls-4" d="M277.99,26.07c4.74,0,7.87.32,9.48.89v3.43c-1.73.19-3.52.32-5.25.32-2.24,0-4.61.06-7.11.13-6.98.13-11.78.51-14.34,1.08-.83,3.75-1.22,6.36-1.15,7.69.06,1.34.06,2.42.13,3.18.19,2.16.32,4.32.26,6.49,3.71-.06,7.36-.32,11.01-.83,4.16-.57,7.36-.95,9.6-1.21,2.37-.25,4.67-.38,7.04-.38v3.88l-27.21,3.37.45,11.57c4.67,0,9.48-.25,14.41-.7,4.87-.45,8.58-.76,11.14-1.02,2.56-.19,5.19-.32,8.07-.32,0,.95-.32,1.91-.83,2.67-1.15,1.53-2.18,1.97-3.07,1.34-8.32.89-15.75,1.59-22.34,2.1l-13.25,1.02.25-45.02c1.22.38,3.52.57,6.79.57l15.94-.25Z"/>
    <path id="Vector_46" class="cls-2" d="M382.1,45.02h1.98c.77,0,1.54.06,2.31.19.7.13,1.09.64,1.09,1.53.32,1.91-.77,2.8-3.33,2.73l-1.92-.13c-.51-.06-.96-.06-1.47-.06-.38,0-.58.13-.51.38.45,1.34.96,2.92,1.54,4.58.58,1.65,1.15,3.37,1.79,5.09,1.73,4.2,3.33,7.18,4.8,9.03-.77.95-1.73,1.78-2.82,2.48-.58.38-1.09.7-1.73,1.02-.06,0-.13,0-.19-.06l-9.99-20.92-19.4,4.71-.7,2.99c-1.35,5.4-2.88,9.16-4.61,11.32-.25.45-.9.51-1.79.13-1.54-.57-2.24-1.02-2.24-1.4,0-.06.51-1.46,1.47-4.07l3.01-8.01,3.2-8.52c1.09-2.99,2.18-5.79,3.14-8.46,1.02-2.67,1.92-5.09,2.69-7.25.83-2.1,1.35-3.69,1.73-4.64.32-.83.51-1.65.64-2.54.06-.64.26-1.27.51-1.84.45-1.08,1.66-1.65,3.52-1.65,1.92,1.02,3.58,2.54,4.74,4.39,1.15,1.84,2.11,3.81,2.82,5.85.77,2.1,1.54,4.13,2.31,6.29.7,2.03,1.73,4.01,3.07,5.79.45.64,1.15,1.08,1.92,1.08h2.43ZM364.36,29.76c-.45,3.05-1.28,6.04-2.56,8.84-1.34,2.99-2.37,5.34-3.2,6.99-.83,1.65-1.47,3.18-2.05,4.64,3.2,0,7.17-.95,11.84-2.8,1.15-.51,2.31-1.02,3.39-1.4-2.18-9.47-4.67-14.88-7.43-16.28Z"/>
    <path id="Vector_47" class="cls-1" d="M308.47,23.85c1.24,0,2.24-1,2.24-2.23s-1-2.23-2.24-2.23-2.24,1-2.24,2.23,1,2.23,2.24,2.23Z"/>
    <path id="Vector_48" class="cls-5" d="M298.16,25.63c1.24,0,2.24-1,2.24-2.23s-1-2.23-2.24-2.23-2.24,1-2.24,2.23,1,2.23,2.24,2.23Z"/>
    <path id="Vector_49" class="cls-10" d="M305.33,16.41c1.24,0,2.24-1,2.24-2.23s-1-2.23-2.24-2.23-2.24,1-2.24,2.23,1,2.23,2.24,2.23Z"/>
    <path id="Vector_50" class="cls-11" d="M293.75,13.23c1.24,0,2.24-1,2.24-2.23s-1-2.23-2.24-2.23-2.24,1-2.24,2.23,1,2.23,2.24,2.23Z"/>
    <path id="Vector_51" class="cls-12" d="M343.04,39.62c-.06-2.8-.32-5.6-.83-8.33-.13-.89-.38-1.84-.7-2.67-.13-1.34-1.28-2.35-2.62-2.35-11.14,0-22.28.06-33.42.06-1.47,0-2.62,1.08-2.69,2.54v.25l-.06,38.53c1.02.38,2.05.57,3.14.51h.7c7.11.13,14.47,0,21.13-2.67,5.38-2.23,9.86-6.23,12.68-11.25,2.56-4.39,2.75-9.6,2.69-14.62ZM336.06,53.29c-6.08,9.6-17.22,10.81-27.66,10.75v-.06h-.19v-.76c-.06-.45-.06-.89,0-1.34v-28.93c0-.57.45-1.08,1.09-1.08,9.28-.06,18.57-.06,27.91-.06.51,0,.96.38,1.09.83.06.38.13.7.19,1.08.32,2.29.51,4.64.45,6.93-.06,4.64-.38,8.71-2.88,12.65Z"/>
    <path id="Vector_53" class="cls-13" d="M339.91,14.69c0-2.16-1.79-3.94-3.97-3.94s-3.97,1.78-3.97,3.94c0,.57.13,1.14.38,1.72l-4.29,8.46h5.25l3.33-6.29c1.86-.38,3.27-2.03,3.27-3.88Z"/>
    <path id="Vector_54" class="cls-15" d="M216.72,79.99l-1.6-.06c-.45,0-.96.06-1.41.13,0,.45-.06,1.02-.13,1.78-.25,2.54-.38,4.2-.38,5.02v1.59l-1.66.13.58-8.65-3.78-.19c-.06,0-.19-.06-.19-.25-.06-.13-.06-.25-.06-.44,0-.13.06-.32.13-.45.06-.13.19-.19.38-.25.83.06,1.73.06,2.56.19,1.6.13,3.01.19,4.1.19l1.09-.06c.83,0,1.73-.13,2.56-.25.19.06.32.32.32.89v.25c-.77.38-1.6.44-2.5.44Z"/>
    <path id="Vector_55" class="cls-24" d="M228.11,88.38c-.13.19-.38.32-.83.32s-.64-.13-.64-.45c0-1.4,0-2.29-.06-2.8-.13-1.14-.32-1.72-.64-1.84-.7-.13-1.35-.25-2.05-.25-.51,0-.96.13-1.34.51-.38.45-.7,1.02-.77,1.59-.19,1.02-.38,2.1-.38,3.12h-1.41v-3.88c0-.76-.06-1.65-.06-2.61-.06-1.08-.06-1.97-.06-2.73,0-.7.06-1.34.13-2.03.06-.19.32-.32.51-.32.25,0,.51.06.64.25.13.13.19.32.26.51l-.06,2.86c0,.83.06,1.65.13,2.42.96-.7,2.11-1.02,3.26-1.02.38,0,.77.06,1.15.06.7.32,1.28.83,1.73,1.46.13.25.19.57.25.89s.06.64.06,1.02c0,.95.06,1.91.19,2.92Z"/>
    <path id="Vector_56" class="cls-25" d="M232.34,87.37c1.02,0,2.56-.44,4.67-1.4.13,0,.25.06.32.13.06.06.13.19.13.32-.64.89-1.6,1.59-2.69,1.84-1.22.45-2.5.51-3.72.25-1.15-.19-2.11-1.08-2.37-2.16,0-.32-.06-.57,0-.89,0-.51.13-1.02.32-1.46.19-.64.58-1.21.96-1.72.45-.51,1.03-.95,1.66-1.27.64-.32,1.35-.44,2.05-.44.83.06,1.6.25,2.31.7.38.19.7.45.96.76.19.25.32.51.32.89v.25c0,.64-.38,1.21-1.02,1.34-.32.06-.7.13-1.02.13l-2.56-.13c-.7-.06-1.35.13-1.92.57-.26.25-.45.57-.58.89.19.83,1.15,1.53,2.18,1.4ZM235.48,81.96c-.26-.19-.51-.32-.83-.38-.26-.06-.45-.13-.7-.13-.32,0-.64.06-.9.19-.38.13-.77.25-1.15.38-.83.38-1.22.76-1.22,1.14.96.06,1.66.13,2.11.13.9.06,1.79-.06,2.63-.32.25-.13.45-.25.45-.44,0-.25-.13-.45-.38-.57Z"/>
    <path id="Vector_57" class="cls-26" d="M247.96,83.68c-.06.38-.06.95-.06,1.65,0,.89.13,1.78.32,2.67l-1.34.7-.64-4.77c-.45-.06-.64-.19-.64-.44,0-.19.13-.45.32-.57.13-.19.32-.38.45-.57.06-.13.13-.32.19-.51,0-.19,0-.51.06-.95.06-.45.06-.95.06-1.46s.06-1.02.06-1.46.06-.76.06-.95c.19-.19.38-.32.58-.45.32-.13.51-.06.58.19l-.13,5.53c2.88,0,4.61-.19,5.25-.57v-5.53c.06-.19.38-.32.96-.32h.32v1.02c0,.44,0,.95.06,1.53,0,.57,0,1.14.06,1.84.06.64.06,1.21.06,1.84.06,1.21.06,2.03.06,2.61,0,1.21.32,2.35.9,3.37-.58.19-1.15.32-1.73.32-.58-1.65-.9-3.43-.9-5.21l-1.6-.06c-.26,0-.58,0-.96.06-.77,0-1.6.19-2.37.51Z"/>
    <path id="Vector_58" class="cls-27" d="M260.26,87.37c1.02,0,2.56-.44,4.67-1.4.13,0,.25.06.32.13.06.06.13.19.13.32-.64.89-1.6,1.59-2.69,1.84-1.22.45-2.5.51-3.71.25-1.15-.19-2.11-1.08-2.37-2.16,0-.32-.06-.57,0-.89,0-.51.13-1.02.32-1.46.19-.64.58-1.21.96-1.72.45-.51,1.02-.95,1.66-1.27.64-.32,1.34-.44,2.05-.44.83.06,1.6.25,2.31.7.38.19.7.45.96.76.19.25.32.51.32.89v.25c0,.64-.38,1.21-1.02,1.34-.32.06-.7.13-1.02.13l-2.56-.13c-.7-.06-1.35.13-1.92.57-.25.25-.45.57-.58.89.13.83,1.09,1.53,2.18,1.4ZM263.39,81.96c-.26-.19-.51-.32-.83-.38-.25-.06-.45-.13-.7-.13-.32.06-.58.13-.9.19-.38.13-.77.25-1.15.38-.83.38-1.22.76-1.22,1.14.96.06,1.66.13,2.11.13.9.06,1.79-.06,2.63-.32.25-.13.45-.25.45-.44s-.19-.45-.38-.57Z"/>
    <path id="Vector_59" class="cls-14" d="M273.32,85.71c-.77,1.27-2.05,2.23-3.52,2.54-.32.06-.64.13-.9.13h-.7c-.19,0-.38-.06-.64-.06-.25-.06-.45-.13-.64-.25-.39-.19-.64-.57-.64-1.02-.06-.25-.06-.45-.06-.7,0-.38.06-.7.19-1.02.13-.51.39-.95.64-1.4.32-.51.7-.95,1.15-1.4.83-.83,1.86-1.4,3.01-1.72.25-.06.58-.13.9-.13.26,0,.45,0,.7.06.7,0,1.15.44,1.35,1.4.19.83.25,1.59.25,2.42,0,1.02.06,1.84.06,2.42,0,.51.06,1.02.19,1.53h-1.02c-.06-.32-.06-.57-.13-.83,0-.25-.06-.44-.06-.7,0-.45-.06-.89-.13-1.27ZM273.25,82.98c.06-.51-.25-.95-.77-1.02h-.51c-1.03.06-1.99.51-2.69,1.21-.45.38-.83.83-1.15,1.27-.38.51-.64,1.14-.7,1.78,0,.7.38,1.08,1.21,1.21,1.15-.06,2.24-.57,3.01-1.4.38-.38.77-.83,1.02-1.34.32-.51.51-1.08.58-1.72Z"/>
    <path id="Vector_60" class="cls-17" d="M275.88,81.83c0-.64-.06-1.21-.06-1.65,0-.51-.06-.89-.06-1.08-.06-.57-.13-1.14-.32-1.78l.32-.38c.13-.13.25-.19.45-.19.45,0,.77,1.72.96,5.15.13,1.97.19,4.01.19,5.98,0,.51-.38.83-1.15.83h-.13c0-.64,0-1.4-.06-2.35-.06-.95-.06-1.78-.06-2.48,0-.76-.06-1.4-.06-2.03Z"/>
    <path id="Vector_61" class="cls-16" d="M281.07,86.92v-2.8c0-.38-.06-.76-.13-1.14h-2.69v-1.21h2.56v-4.51c.06-.13.13-.25.19-.32.13-.13.26-.19.38-.25.13,0,.19,0,.32.06.13.06.19.13.25.25.19,1.14.32,2.29.26,3.5,0,.38,0,.76.06,1.14.38-.06.77-.06,1.15-.06h.9c.19,0,.45,0,.64-.06l-.06,1.27-2.56-.06.06,6.04c-.19.06-.39.13-.58.13-.51,0-.77-.7-.77-1.97Z"/>
    <path id="Vector_62" class="cls-18" d="M293.93,88.38c-.13.19-.39.32-.83.32s-.64-.13-.64-.45c0-1.4,0-2.29-.06-2.8-.13-1.14-.32-1.72-.64-1.84-.7-.13-1.35-.25-2.05-.25-.51,0-.96.13-1.34.51-.39.45-.7,1.02-.77,1.59-.19,1.02-.38,2.1-.38,3.12h-1.35v-3.88c0-.76-.06-1.65-.06-2.61-.06-1.08-.06-1.97-.06-2.73,0-.7.06-1.34.13-2.03.06-.19.32-.32.51-.32.26,0,.51.06.64.25.13.13.19.32.26.51l-.06,2.86c0,.83.06,1.65.13,2.42.96-.7,2.11-1.02,3.26-1.02.38,0,.77.06,1.15.06.7.32,1.28.83,1.73,1.46.13.25.19.57.25.89s.06.64.06,1.02c-.06.95,0,1.91.13,2.92Z"/>
    <path id="Vector_63" class="cls-19" d="M314.81,85.71c.9-3.43,1.6-6.87,2.05-10.36.77,0,1.15.25,1.15.7v.32c0,.19,0,.38-.06.57-.06.32-.13.83-.19,1.46-.06.64-.19,1.34-.32,2.16-.13.83-.25,1.65-.45,2.54-.38,2.1-.83,3.82-1.22,5.28-.45.32-.77.32-.96.13-.13-.13-.19-.25-.26-.44l-.25-.64c-.32-.51-.58-1.02-.83-1.59-.45-.83-.77-1.53-.96-2.03-.25-.51-.45-.95-.7-1.4-.32-.7-.77-1.27-1.34-1.72-.9,1.72-1.6,3.5-2.24,5.34-.19.51-.39,1.02-.51,1.4-.13.45-.26.76-.39,1.08l-1.09-.06-4.42-10.05c0-.06-.06-.13,0-.19,0-.06,0-.13.06-.19.06-.06.13-.13.19-.13.19-.06.38-.13.58-.13.13,0,.32,0,.45.13.06.06.19.19.19.25.06.13.13.25.13.38.06.19.13.38.19.57l.45.95c.19.45.38.89.64,1.34l.64,1.4c.19.45.45.89.64,1.27.19.51.51,1.02.77,1.46,1.35-3.31,2.18-5.28,2.5-5.91.32-.64.51-1.02.58-1.14.13-.19.25-.32.32-.32.51,0,1.35,1.14,2.56,3.37.32.57.64,1.14.9,1.72.32.95.7,1.72,1.22,2.48Z"/>
    <path id="Vector_64" class="cls-29" d="M327.04,88.38c-.13.19-.39.32-.83.32s-.64-.13-.64-.45c0-1.4,0-2.29-.06-2.8-.13-1.14-.32-1.72-.64-1.84-.7-.13-1.34-.25-2.05-.25-.51,0-.96.13-1.35.51-.38.45-.7,1.02-.77,1.59-.19,1.02-.38,2.1-.38,3.12h-1.35v-3.88c0-.76-.06-1.65-.06-2.61-.06-1.08-.06-1.97-.06-2.73,0-.7.06-1.34.13-2.03.06-.19.32-.32.51-.32.26,0,.51.06.64.25.13.13.19.32.25.51l-.06,2.86c0,.83.06,1.65.13,2.42.96-.7,2.11-1.02,3.26-1.02.39,0,.77.06,1.15.06.7.32,1.28.83,1.73,1.46.13.25.19.57.26.89s.06.64.06,1.02c-.06.95,0,1.91.13,2.92Z"/>
    <path id="Vector_65" class="cls-21" d="M327.68,78.02c0-.45.26-.64.7-.64.26,0,.58.06.77.19.06.13.06.25.06.38s-.06.25-.13.38c-.13.13-.26.19-.45.19s-.39-.06-.58-.13c-.13-.13-.32-.25-.39-.38ZM329.28,80.37c.13,2.16.25,4.71.38,7.57-.06.38-.32.57-.83.57-.13,0-.25,0-.38-.06-.13,0-.19-.13-.26-.19v-7.88h1.09Z"/>
    <path id="Vector_66" class="cls-30" d="M336.44,84.06c1.28,0,1.92.32,1.92.95,0,.51-.39,1.08-1.09,1.72-1.28,1.08-2.76,1.84-4.29,2.35-.06,0-.19-.06-.25-.25l-.26-.38c-.06-.06-.06-.13-.13-.19,1.22-.38,2.31-.89,3.33-1.59.58-.44.9-.76.9-1.02s-.32-.38-1.02-.38c-1.03.06-2.05.19-3.07.51-.58,0-1.15-.25-1.6-.64-.32-.25-.58-.64-.58-1.08,0-.38.13-.7.32-1.02.26-.32.51-.64.83-.89.38-.25.77-.51,1.22-.7,1.09-.51,2.31-.83,3.58-.83.39,0,.7.06,1.09.13.26-.06.45.13.51.38.06.38.06.83.06,1.21-.77-.32-1.54-.51-2.37-.45-.96-.06-1.86.19-2.69.64-.64.32-1.09.95-1.15,1.65,0,.32.26.51.7.51l1.28-.13c.96-.32,1.86-.44,2.75-.51Z"/>
    <path id="Vector_67" class="cls-28" d="M341.18,81.58c1.35-.51,2.75-.76,4.16-.83,1.47,0,2.43.38,2.94,1.14.19.38.32.76.32,1.14,0,.64-.19,1.27-.58,1.78-.39.64-.9,1.21-1.47,1.65-1.47,1.21-3.26,1.91-5.18,2.16v3.88c.06.89.06,1.4.06,1.53v.32c0,.25-.06.51-.26.64-.19.13-.45.25-.77.19h-.06l-.25-14.05c.06-.13.25-.25.45-.19.13,0,.32.06.45.13.06.19.13.32.19.51ZM346.31,82.22c-.38-.19-.83-.32-1.22-.32-.45,0-.83.06-1.28.13-.9.13-1.66.57-2.18,1.27-.19.32-.32.7-.32,1.14v3.18c2.43-.51,4.1-1.27,5.12-2.23.51-.45.83-1.02.9-1.72,0-.64-.38-1.21-1.02-1.46Z"/>
    <path id="Vector_68" class="cls-20" d="M353.1,87.37c1.03,0,2.56-.44,4.67-1.4.13,0,.26.06.32.13.06.06.13.19.13.32-.64.89-1.6,1.59-2.69,1.84-1.22.45-2.5.51-3.71.25-1.15-.19-2.11-1.08-2.37-2.16,0-.32-.06-.57,0-.89,0-.51.13-1.02.32-1.46.19-.64.58-1.21.96-1.72.45-.51,1.02-.95,1.66-1.27.64-.32,1.34-.44,2.05-.44.83.06,1.6.25,2.31.7.38.19.7.45.96.76.19.25.32.51.32.89v.25c0,.64-.39,1.21-1.03,1.34-.32.06-.7.13-1.02.13l-2.56-.13c-.7-.06-1.35.13-1.92.57-.25.25-.45.57-.51.89.13.83,1.09,1.53,2.11,1.4ZM356.23,81.96c-.26-.19-.51-.32-.83-.38-.25-.06-.45-.13-.7-.13-.32,0-.64.13-.9.19-.38.13-.77.25-1.15.38-.83.38-1.22.76-1.22,1.14.96.06,1.66.13,2.11.13.9.06,1.79-.06,2.62-.32.26-.13.45-.25.45-.44s-.13-.45-.38-.57Z"/>
    <path id="Vector_69" class="cls-31" d="M367.89,82.22c-.58-.38-1.22-.57-1.92-.51-.7,0-1.41.13-2.05.38-1.02.32-1.86,1.02-2.43,1.91-.19.32-.25.7-.25,1.14v.57c0,.45.06.83.19,1.27.13.57.19,1.08.19,1.65-.19,0-.38.06-.58.06-.13.06-.26.06-.38.06s-.19-.06-.26-.13c-.13-.19-.19-.32-.25-.57,0-.06,0-.25-.06-.57-.06-.32-.06-.7-.13-1.21-.06-.45-.13-.95-.19-1.53-.06-.57-.13-1.08-.19-1.65-.13-1.14-.26-2.03-.32-2.54,0-.25.19-.45.64-.45.26,0,.45.13.58.32.13.19.26.44.32.7.06.25.13.51.19.76,0,.25.06.45.06.57,1.6-1.4,3.65-2.1,5.76-2.03h1.09c.13,0,.25.13.32.19.13.19.19.38.19.57,0,.64-.19.95-.51,1.02Z"/>
    <path id="Vector_70" class="cls-23" d="M372.82,87.37c1.02,0,2.56-.44,4.67-1.4.13,0,.25.06.32.13.06.06.13.19.13.32-.64.89-1.6,1.59-2.69,1.84-1.22.45-2.5.51-3.72.25-1.15-.19-2.11-1.08-2.37-2.16,0-.32-.06-.57,0-.89,0-.51.13-1.02.32-1.46.19-.64.58-1.21.96-1.72.45-.51,1.03-.95,1.66-1.27.64-.32,1.35-.44,2.05-.44.83.06,1.6.25,2.31.7.38.19.7.45.96.76.19.25.32.51.32.89v.25c0,.64-.38,1.21-1.02,1.34-.32.06-.7.13-1.02.13l-2.56-.13c-.7-.06-1.35.13-1.92.57-.26.25-.45.57-.51.89.06.83,1.09,1.53,2.11,1.4ZM375.95,81.96c-.26-.19-.51-.32-.83-.38-.26-.06-.45-.13-.7-.13-.32,0-.64.06-.9.19-.38.13-.77.25-1.15.38-.83.38-1.22.76-1.22,1.14.96.06,1.66.13,2.11.13.9.06,1.79-.06,2.63-.32.25-.13.45-.25.45-.44,0-.25-.19-.45-.38-.57Z"/>
    <path id="Vector_71" class="cls-22" d="M387.61,82.22c-.58-.38-1.21-.57-1.92-.51-.7,0-1.41.13-2.05.38-1.02.32-1.86,1.02-2.43,1.91-.19.32-.26.7-.26,1.14v.57c0,.45.06.83.19,1.27.13.57.19,1.08.19,1.65-.19,0-.39.06-.58.06-.13.06-.26.06-.39.06s-.19-.06-.25-.13c-.13-.19-.19-.32-.26-.57,0-.06,0-.25-.06-.57-.06-.32-.06-.7-.13-1.21-.06-.45-.13-.95-.19-1.53-.06-.57-.13-1.08-.19-1.65-.13-1.14-.25-2.03-.32-2.54,0-.25.19-.45.64-.45.25,0,.45.13.58.32.13.19.25.44.32.7.06.25.13.51.19.76,0,.25.06.45.06.57,1.6-1.4,3.65-2.1,5.76-2.03h1.09c.13,0,.26.13.32.19.13.19.19.38.19.57,0,.64-.19.95-.51,1.02Z"/>
  </g>
</svg>